<?xml version="1.0" encoding="UTF-8" standalone="no"?>
<!-- Created with Inkscape (http://www.inkscape.org/) -->
<!-- ClipArt created by Arvin61r58 (http://openclipart.org/user-detail/Arvin61r58) -->
<svg xmlns:inkscape="http://www.inkscape.org/namespaces/inkscape" xmlns:rdf="http://www.w3.org/1999/02/22-rdf-syntax-ns#" xmlns="http://www.w3.org/2000/svg" xmlns:sodipodi="http://sodipodi.sourceforge.net/DTD/sodipodi-0.dtd" xmlns:ns1="http://sozi.baierouge.fr" xmlns:cc="http://creativecommons.org/ns#" xmlns:xlink="http://www.w3.org/1999/xlink" xmlns:dc="http://purl.org/dc/elements/1.1/" id="svg4084" viewBox="0 0 285.85 275.54" version="1.1" inkscape:version="0.91 r13725">
  <title id="title4785">Groucho Marx</title>
  <defs id="defs4086">
    <pattern id="pattern7147" xlink:href="#pattern6883" patternTransform="translate(110.41 240.36)"/>
    <filter id="filter4201" height="1" width="1" color-interpolation-filters="sRGB" y="0" x="0">
      <feTurbulence id="feTurbulence4203" baseFrequency="1" seed="0" result="result0" numOctaves="3" type="fractalNoise"/>
      <feColorMatrix id="feColorMatrix4205" values="0" type="saturate" result="result4"/>
      <feComposite id="feComposite4207" in="SourceGraphic" in2="result4" k3="0.5" k2="0.5" k1="1.25" result="result2" k4="0" operator="arithmetic"/>
      <feBlend id="feBlend4209" result="result5" mode="normal" in2="SourceGraphic" in="result2"/>
      <feComposite id="feComposite4211" operator="in" result="result3" in2="SourceGraphic" in="result5"/>
    </filter>
    <pattern id="pattern6883" width="9.9999999" patternUnits="userSpaceOnUse" patternTransform="translate(110.41 255.59)" height="9.9999999">
      <path id="path6879" style="fill-rule:evenodd;fill:#cf3045" transform="matrix(.86012 0 0 .86012 63.5 -109)" d="m-68.014 129.63a2.9066 2.9066 0 1 1 -5.8131 0 2.9066 2.9066 0 1 1 5.8131 0z"/>
      <path id="path6881" style="fill-rule:evenodd;fill:#cf3045" transform="matrix(.86012 0 0 .86012 68.5 -104)" d="m-68.014 129.63a2.9066 2.9066 0 1 1 -5.8131 0 2.9066 2.9066 0 1 1 5.8131 0z"/>
    </pattern>
    <linearGradient id="linearGradient7238" y2="551.51" gradientUnits="userSpaceOnUse" x2="295.79" gradientTransform="translate(.053461 -12.212)" y1="535.43" x1="295.79">
      <stop id="stop4104" style="stop-color:#a7a7a7" offset="0"/>
      <stop id="stop4106" style="stop-color:#bababa" offset=".071429"/>
      <stop id="stop4108" style="stop-color:#d7d7d7" offset=".14286"/>
      <stop id="stop4110" style="stop-color:#f2f2f2" offset=".21429"/>
      <stop id="stop4112" style="stop-color:#ffffff" offset=".28571"/>
      <stop id="stop4114" style="stop-color:#fbfbfb" offset=".35714"/>
      <stop id="stop4116" style="stop-color:#f1f1f1" offset=".42857"/>
      <stop id="stop4118" style="stop-color:#e2e2e2" offset=".5"/>
      <stop id="stop4120" style="stop-color:#cecfce" offset=".57143"/>
      <stop id="stop4122" style="stop-color:#bababa" offset=".64286"/>
      <stop id="stop4124" style="stop-color:#a5a5a5" offset=".71429"/>
      <stop id="stop4126" style="stop-color:#909090" offset=".78571"/>
      <stop id="stop4128" style="stop-color:#7c7c7c" offset=".85714"/>
      <stop id="stop4130" style="stop-color:#6c6c6c" offset=".92857"/>
      <stop id="stop4132" style="stop-color:#636363" offset="1"/>
    </linearGradient>
  </defs>
  <g id="layer1" transform="translate(-198.77 -125.06)">
    <g id="g7205">
      <g id="g4585" transform="translate(109.61 32.815)">
        <g id="g4172" transform="matrix(1.6493 -.68889 .40937 1.0751 -518.77 -46.416)">
          <rect id="rect4018" style="fill-rule:evenodd;fill:#511010" rx="4.5553" ry="2.8629" height="15.977" width="104.11" y="523.12" x="243.54"/>
          <rect id="rect4024" style="opacity:.25;fill-rule:evenodd;fill:url(#linearGradient7238)" rx="4.5553" ry="2.8629" height="15.977" width="104.11" y="523.12" x="243.54"/>
        </g>
        <path id="rect4170" style="filter:url(#filter4201);fill-rule:evenodd;fill:#717171" d="m252.07 523.75c-2.216 0-4 0.669-4 1.5v13c0 0.831 1.784 1.5 4 1.5h9.4688v-16h-9.4688z" transform="matrix(1.6493 -.68889 .40937 1.0751 -534.98 -40.452)"/>
      </g>
      <g id="g4711" transform="matrix(.9025 0 0 1 23.018 0)">
        <path id="path3023" style="fill-rule:evenodd;fill:#000000" d="m295.9 125.06c-2.6226 0-4.8805 1.5577-5.875 3.8125-1.408-1.244-3.1863-2-5.125-2-3.2438 0-6.0281 2.0993-7.375 5.125-1.2711-0.37592-2.56-0.5625-3.875-0.5625-3.1222 0-6.1378 1.1016-8.9688 3.125-1.7924-1.3737-3.9811-2.1875-6.3438-2.1875-6.0733 0-11 5.3268-11 11.906 0 0.69198 0.0517 1.3716 0.15625 2.0312-7.2159 5.1914-11.406 11.409-11.406 18.094 0 3.7656 1.3244 7.4067 3.7812 10.781 0.0179 0.0157 0.0446 0.0154 0.0625 0.0312 1.4123 1.2518 2.9138 2.9089 4.4375 4.8125 0.13326 0.11735 0.27011 0.22727 0.40625 0.34375-0.005 0.0406 0.005 0.0844 0 0.125 1.224 1.5659 2.4486 3.3073 3.625 5.1875 0.40517 0.64755 0.78572 1.2963 1.1562 1.9375 11.326 7.9556 19.5 30.66 19.5 57.438 0 8.4604-0.83906 16.501-2.3125 23.812 2.2143 1.189 4.5351 1.8438 6.9062 1.8438 3.7527 0 7.3399-1.5906 10.656-4.4688-0.3894-3.6081-0.59375-7.3333-0.59375-11.125 0-21.291 6.4051-40.105 16.219-51.562 0.80315-1.6783 2.1783-3.7593 3.9062-6-0.001-0.0625 0.001-0.12505 0-0.1875 0.0419 0.00053 0.0832-0.00066 0.125 0 3.2352-4.1651 7.6908-8.8716 12.312-12.812 3.4844-2.9711 6.4637-5.0081 8.5938-5.9688 0.004-0.005 0.0269 0.005 0.0312 0 2.951-3.5797 6.5833-7.0957 10.781-10.312 13.676-10.479 28.869-14.317 36.625-9.8438 0.56013-0.20305 1.1115-0.4086 1.6875-0.59375-0.24689-0.57962-0.56483-1.1506-0.875-1.7188 0.44741-0.59024 0.71875-1.4477 0.71875-2.4375 0-1.7771-0.9004-3.2188-2.0312-3.2188-0.10949 0-0.20766 0.0365-0.3125 0.0625 0.096-0.29525 0.15625-0.60798 0.15625-0.9375 0-1.6042-1.2266-2.9062-2.75-2.9062-0.69013 0-1.3288 0.27765-1.8125 0.71875 0.21393-0.58533 0.34375-1.254 0.34375-1.9375 0-2.5848-1.7123-4.6562-3.8125-4.6562-0.8232 0-1.5651 0.32784-2.1875 0.875-0.065-1.4606-1.2733-2.625-2.75-2.625-0.74294 0-1.4427 0.27112-1.9375 0.75-0.98042-4.8066-4.5986-8.375-8.9062-8.375-2.2142 0-4.2284 0.93125-5.8125 2.5-1.3386-3.0618-4.6852-5.2188-8.5625-5.2188-2.7803 0-5.2569 1.1155-6.9375 2.875-0.37413-0.63728-0.93599-1.0312-1.5312-1.0312-0.60994 0-1.1249 0.42883-1.5 1.0938-0.96925-2.8688-2.7116-4.7812-4.6875-4.7812-1.1136 0-2.1341 0.61304-3 1.6562-2.0054-2.1288-4.8446-3.4688-8-3.4688-2.6097 0-4.9893 0.88754-6.875 2.4062-1.1752-1.4767-2.9973-2.4062-5.0312-2.4062z"/>
        <path id="path3848" style="fill-rule:evenodd;fill:#000000" d="m451.66 125.06c2.6226 0 4.8805 1.5577 5.875 3.8125 1.408-1.244 3.1863-2 5.125-2 3.2438 0 6.0281 2.0993 7.375 5.125 1.2711-0.37592 2.56-0.5625 3.875-0.5625 3.1222 0 6.1378 1.1016 8.9688 3.125 1.7924-1.3737 3.9811-2.1875 6.3438-2.1875 6.0733 0 11 5.3268 11 11.906 0 0.69198-0.0517 1.3716-0.15625 2.0312 7.2159 5.1914 11.406 11.409 11.406 18.094 0 3.7656-1.3244 7.4067-3.7812 10.781-0.0179 0.0157-0.0446 0.0154-0.0625 0.0312-1.4123 1.2518-2.9138 2.9089-4.4375 4.8125-0.13326 0.11735-0.27011 0.22727-0.40625 0.34375 0.005 0.0406-0.005 0.0844 0 0.125-1.224 1.5659-2.4486 3.3073-3.625 5.1875-0.40517 0.64755-0.78572 1.2963-1.1562 1.9375-11.326 7.9556-19.5 30.66-19.5 57.438 0 8.4604 0.83906 16.501 2.3125 23.812-2.2143 1.189-4.5351 1.8438-6.9062 1.8438-3.7527 0-7.3399-1.5906-10.656-4.4688 0.3894-3.6081 0.59375-7.3333 0.59375-11.125 0-21.291-6.4051-40.105-16.219-51.562-0.80315-1.6783-2.1783-3.7593-3.9062-6 0.001-0.0625-0.001-0.12505 0-0.1875-0.0419 0.00053-0.0832-0.00066-0.125 0-3.2352-4.1651-7.6908-8.8716-12.312-12.812-3.4844-2.9711-6.4637-5.0081-8.5938-5.9688-0.004-0.005-0.0269 0.005-0.0312 0-2.951-3.5797-6.5833-7.0957-10.781-10.312-13.676-10.479-28.869-14.317-36.625-9.8438-0.56013-0.20305-1.1115-0.4086-1.6875-0.59375 0.24689-0.57962 0.56483-1.1506 0.875-1.7188-0.44741-0.59024-0.71875-1.4477-0.71875-2.4375 0-1.7771 0.9004-3.2188 2.0312-3.2188 0.10949 0 0.20766 0.0365 0.3125 0.0625-0.096-0.29525-0.15625-0.60798-0.15625-0.9375 0-1.6042 1.2266-2.9062 2.75-2.9062 0.69013 0 1.3288 0.27765 1.8125 0.71875-0.21393-0.58533-0.34375-1.254-0.34375-1.9375 0-2.5848 1.7123-4.6562 3.8125-4.6562 0.8232 0 1.5651 0.32784 2.1875 0.875 0.065-1.4606 1.2733-2.625 2.75-2.625 0.74294 0 1.4427 0.27112 1.9375 0.75 0.98042-4.8066 4.5986-8.375 8.9062-8.375 2.2142 0 4.2284 0.93125 5.8125 2.5 1.3386-3.0618 4.6852-5.2188 8.5625-5.2188 2.7803 0 5.2569 1.1155 6.9375 2.875 0.37413-0.63728 0.93599-1.0312 1.5312-1.0312 0.60994 0 1.1249 0.42883 1.5 1.0938 0.96925-2.8688 2.7116-4.7812 4.6875-4.7812 1.1136 0 2.1341 0.61304 3 1.6562 2.0054-2.1288 4.8446-3.4688 8-3.4688 2.6097 0 4.9893 0.88754 6.875 2.4062 1.1752-1.4767 2.9973-2.4062 5.0312-2.4062z"/>
      </g>
      <g id="g7149" transform="translate(-.0000032750)">
        <path id="path7143" style="fill-rule:evenodd;fill:#000000" d="m305.59 366.15-0.1873 29.247 46.182-7.0288c0.0594 3.8057 0.79594 6.7906 1.7274 6.7906h14.09c0.91217 0 1.6413-2.8593 1.7274-6.5523l45.995 8.0414 0.18731-29.247-46.203 5.9566c-0.16854-3.291-0.86284-5.7184-1.7066-5.7184h-14.09c-0.83212 0-1.5052 2.3767-1.6858 5.5992l-46.036-7.0884z"/>
        <path id="path4269" style="fill-rule:evenodd;stroke:#b20000;stroke-width:3;fill:url(#pattern7147)" d="m305.59 366.15-0.1873 29.247 46.182-7.0288c0.0594 3.8057 0.79594 6.7906 1.7274 6.7906h14.09c0.91217 0 1.6413-2.8593 1.7274-6.5523l45.995 8.0414 0.18731-29.247-46.203 5.9566c-0.16854-3.291-0.86284-5.7184-1.7066-5.7184h-14.09c-0.83212 0-1.5052 2.3767-1.6858 5.5992l-46.036-7.0884z"/>
      </g>
      <g id="g5013" transform="translate(1.7e-6,0)">
        <g id="g5009">
          <path id="path4908" style="stroke:#000000;stroke-width:10;fill:none" d="m319.89 214.54-15.996 7.7891 27.586-5.5366 27.603 5.5366-15.996-7.7891h-0.34523-22.506-0.34524z"/>
          <path id="path4910" style="stroke:#000000;stroke-width:10;fill:none" d="m377.62 214.54-15.996 7.7891 27.586-5.5366 27.603 5.5366-15.996-7.7891h-0.34523-22.506-0.34526z"/>
        </g>
        <path id="path4904" style="fill-rule:evenodd;fill:#000000" d="m324.27 307.43c-6.1395 0-11.082 2.2534-11.082 5.0524v15.599c0 2.799 5.3734 4.7219 11.082 6.7893 10.128 3.6679 21.688 8.5866 35.98 8.6904 14.293-0.10378 26.169-5.6132 36.192-8.6904 5.7863-1.7765 11.082-3.9903 11.082-6.7893v-15.599c0-2.799-4.9426-5.0524-11.082-5.0524h-36.086z"/>
        <path id="path4912" style="fill-rule:evenodd;stroke:#000000;stroke-linecap:square;stroke-width:2.5;fill:#ffffff" d="m349.22 312.49c-3.0592-0.58802-6.0039-1.5393-6.5438-2.1139-1.3057-1.3898-1.795-16.666-0.63257-19.75 0.67503-1.7907 1.1513-2.0993 3.2396-2.0993h2.4483l0.37542-15.999c0.4832-20.593 2.0971-32.122 6.159-43.997 0.93861-2.7441 2.6361-6.1038 3.7723-7.4661 1.7764-2.1299 2.256-2.365 3.4237-1.6782 3.2667 1.921 7.0701 12.465 9.3814 26.007 1.0969 6.4268 1.4871 12.13 1.7579 25.697l0.34815 17.437h2.5084c1.8103 0 2.697 0.38708 3.1858 1.3908 0.37257 0.76494 0.6774 5.4492 0.6774 10.41 0 10.698 0.15847 10.467-8.4156 12.237-6.6673 1.3761-14.277 1.3501-21.686-0.0739z"/>
      </g>
      <g id="g5020">
        <g id="g4863" transform="translate(-6.5404)">
          <path id="path4845" style="stroke:#929292;stroke-linecap:square;stroke-width:2;fill:none" d="m347.07 241.04c0.68223-6.6614 9.2971-11.929 19.824-11.929s19.142 5.2672 19.824 11.929"/>
          <g id="g4847" transform="translate(0,-12)">
            <path id="path4843" style="stroke:#929292;stroke-linecap:square;stroke-width:2;fill:none" d="m427.8 254.09c0 12.225-9.1544 22.136-20.447 22.136s-20.447-9.9106-20.447-22.136 9.1545-22.136 20.447-22.136c11.293 0 20.447 9.9106 20.447 22.136z"/>
            <path id="path3926" style="stroke:#929292;stroke-linecap:square;stroke-width:2;fill:none" d="m346.89 254.09c0 12.225-9.1545 22.136-20.447 22.136-11.293 0-20.447-9.9106-20.447-22.136s9.1545-22.136 20.447-22.136c11.293 0 20.447 9.9106 20.447 22.136z"/>
          </g>
        </g>
        <g id="g3978" transform="matrix(.88065 0 0 1.03 -19.412 -236.29)">
          <g id="g3931" transform="matrix(-2.1875 0 0 -2.1875 472.43 1483)">
            <path id="path3933" style="fill-rule:evenodd;stroke:#000000;stroke-width:.83476;fill:#ffffff" d="m51.871 453.46a6.8565 3.2792 0 1 1 -13.713 0 6.8565 3.2792 0 1 1 13.713 0z" transform="matrix(1.1022 0.144 -.32811 1.157 138.1 -65.148)"/>
            <path id="path3935" style="stroke-linejoin:bevel;fill-rule:evenodd;stroke:#000000;stroke-linecap:square;stroke-width:2.8799;fill:#000000" d="m32.792 406.06a1.1924 1.1924 0 1 1 -2.3849 0 1.1924 1.1924 0 1 1 2.3849 0z" transform="translate(9.5395 60.815)"/>
          </g>
          <g id="g3972" transform="matrix(-2.1875 0 0 -2.1875 560.37 1483)">
            <path id="path3974" style="fill-rule:evenodd;stroke:#000000;stroke-width:.83476;fill:#ffffff" d="m51.871 453.46a6.8565 3.2792 0 1 1 -13.713 0 6.8565 3.2792 0 1 1 13.713 0z" transform="matrix(1.1022 0.144 -.32811 1.157 138.1 -65.148)"/>
            <path id="path3976" style="stroke-linejoin:bevel;fill-rule:evenodd;stroke:#000000;stroke-linecap:square;stroke-width:2.8799;fill:#000000" d="m32.792 406.06a1.1924 1.1924 0 1 1 -2.3849 0 1.1924 1.1924 0 1 1 2.3849 0z" transform="translate(9.5395 60.815)"/>
          </g>
        </g>
      </g>
    </g>
  </g>
  <metadata>
    <rdf:RDF>
      <cc:Work>
        <dc:format>image/svg+xml</dc:format>
        <dc:type rdf:resource="http://purl.org/dc/dcmitype/StillImage"/>
        <cc:license rdf:resource="http://creativecommons.org/licenses/publicdomain/"/>
        <dc:publisher>
          <cc:Agent rdf:about="http://openclipart.org/">
            <dc:title>Openclipart</dc:title>
          </cc:Agent>
        </dc:publisher>
      </cc:Work>
      <cc:License rdf:about="http://creativecommons.org/licenses/publicdomain/">
        <cc:permits rdf:resource="http://creativecommons.org/ns#Reproduction"/>
        <cc:permits rdf:resource="http://creativecommons.org/ns#Distribution"/>
        <cc:permits rdf:resource="http://creativecommons.org/ns#DerivativeWorks"/>
      </cc:License>
    </rdf:RDF>
  </metadata>
</svg>
