<?xml version="1.0" encoding="UTF-8"?>
<!DOCTYPE svg PUBLIC "-//W3C//DTD SVG 1.1//EN" "http://www.w3.org/Graphics/SVG/1.1/DTD/svg11.dtd">
<!-- Creator: CorelDRAW 2017 -->
<svg xmlns="http://www.w3.org/2000/svg" xml:space="preserve" width="210mm" height="297mm" version="1.1" style="shape-rendering:geometricPrecision; text-rendering:geometricPrecision; image-rendering:optimizeQuality; fill-rule:evenodd; clip-rule:evenodd"
viewBox="0 0 21000 29700"
 xmlns:xlink="http://www.w3.org/1999/xlink">
 <defs>
  <style type="text/css">
   <![CDATA[
    .fil17 {fill:#044561}
    .fil15 {fill:#0E4E63}
    .fil12 {fill:#1D6982}
    .fil16 {fill:#1F2326}
    .fil10 {fill:#313033}
    .fil4 {fill:#3285A1}
    .fil19 {fill:#47ADD9}
    .fil3 {fill:#4A99B3}
    .fil13 {fill:#4D4C50}
    .fil5 {fill:#6EB5CC}
    .fil2 {fill:#97D8ED}
    .fil6 {fill:#B1E4F5}
    .fil0 {fill:#BCE7F5}
    .fil8 {fill:#BF7737}
    .fil18 {fill:#C27E42}
    .fil1 {fill:#D4F4FF}
    .fil11 {fill:#D89963}
    .fil14 {fill:#E9FCD6}
    .fil7 {fill:white}
    .fil9 {fill:white}
   ]]>
  </style>
 </defs>
 <g id="Слой_x0020_1">
  <metadata id="CorelCorpID_0Corel-Layer"/>
  <g id="_3018987723760">
   <polygon class="fil0" points="2195.67,3870.1 18195.67,3870.1 18195.67,15870.1 2195.67,15870.1 "/>
   <path class="fil1" d="M10041.24 5280.95c3736.26,0 6765.1,3028.83 6765.1,6765.09 0,815.73 -144.42,1597.72 -409.01,2321.85l-12712.18 0c-264.6,-724.13 -409.01,-1506.12 -409.01,-2321.85 0,-3736.26 3028.83,-6765.09 6765.1,-6765.09z"/>
   <g>
    <path class="fil0" d="M9883.4 9224.97c81.83,-304.06 235.88,-315.14 178.56,1.25 -120.31,664.16 1172.99,1008.8 1564.86,42.16 -163.56,-2.52 -319.19,-14.76 -466.61,-35.63 -239.97,-33.96 -457.02,-90.84 -650.21,-165.82 -64.22,-24.7 -96.27,-96.8 -71.57,-161.02 24.69,-64.23 96.79,-96.27 161.02,-71.58 176.78,68.62 375.78,120.72 596.2,151.92 51.35,7.27 103.92,13.4 157.72,18.34 214.55,19.69 407.02,-127.76 443.86,-340.04 10.23,-58.95 18.15,-116.46 23.87,-172.65 -169.03,21.39 -331.86,31.34 -487.93,31.01 -248.87,-0.52 -479.96,-27.22 -691.21,-75.43 -67.09,-15.08 -109.25,-81.71 -94.16,-148.8 15.09,-67.09 81.71,-109.25 148.81,-94.17 194.79,44.46 407.99,69.08 637.71,69.56 33.81,0.07 67.99,-0.39 102.54,-1.38 113.33,-3.25 209.55,-52.12 279.04,-141.7 69.49,-89.59 92.88,-194.94 67.85,-305.52 -19.08,-84.28 -43.32,-165.92 -71.91,-245.55 -123.12,56.27 -243.45,102.03 -360.53,138.02 -207.93,63.91 -407.83,97.77 -596.76,105.59 -68.72,2.69 -126.62,-50.84 -129.32,-119.56 -2.69,-68.72 50.83,-126.62 119.56,-129.32 166.3,-6.87 344.82,-37.47 533.37,-95.42 25.21,-7.75 50.56,-15.98 76.04,-24.68 70.92,-24.24 122.07,-74.01 148.23,-144.24 26.17,-70.23 20.05,-141.34 -17.72,-206.07 -24.41,-41.83 -49.71,-83.47 -75.73,-125.04 -17.58,-28.08 -34.73,-55.34 -51.44,-81.8l-0.84 0.65c-131.04,101.08 -270.34,174.35 -413.67,222.66 -65.15,21.98 -135.79,-13.01 -157.78,-78.16 -21.98,-65.14 13.01,-135.78 78.16,-157.77 79.67,-26.86 158.33,-63.54 234.92,-110.84 35.47,-21.9 58.11,-53.54 67.39,-94.18 9.28,-40.65 2.63,-78.98 -19.82,-114.11 -197.48,-309.15 -284.09,-455.92 -255.8,-559.73 -87.84,110.17 -168.68,169.87 -584.45,317.9 -43.94,15.64 -75.37,47.08 -91,91.03 -15.62,43.95 -11.1,88.17 13.11,128.04 36.03,59.35 76.29,113.75 120.15,163.26 45.62,51.41 40.91,130.06 -10.5,175.68 -51.41,45.61 -130.06,40.91 -175.68,-10.5 -100.14,-113.05 -184.49,-245.96 -247.99,-399.13 -1.78,-4.29 -3.53,-8.59 -5.28,-12.9 -92.01,30.55 -182,65.31 -270.43,105.05 -82.85,37.23 -137.18,106.89 -153.13,196.31 -15.95,89.41 10.96,173.55 75.83,237.13 130.33,127.74 264.6,230.61 399.69,310.35 59.32,35.03 79,111.51 43.97,170.83 -35.02,59.31 -111.51,78.99 -170.82,43.97 -162.17,-95.72 -322.22,-219.98 -475.78,-374.99 -81.65,-82.42 -161.64,-173.76 -239.29,-274.35 -146.21,113.06 -277.02,241.99 -385.57,385.39 -52.09,68.83 -67.97,149.98 -45.64,233.37 22.32,83.38 76.61,145.75 156.13,179.34 39.38,16.63 78.54,32.31 117.45,47.04 214.84,81.34 422.83,134.24 620.68,162.06 68.07,9.78 115.32,72.9 105.53,140.97 -9.78,68.07 -72.9,115.32 -140.97,105.53 -214.57,-30.17 -440.02,-87.49 -672.77,-175.61 -132.95,-50.34 -268.11,-110.64 -404.77,-181.57 -36.39,119.36 -58.72,244.86 -64.63,376.1 -0.87,19.3 -1.37,38.37 -1.52,57.2 -1.19,149.09 112.69,273.09 261.34,284.58 31.29,2.42 62.25,4.36 92.88,5.84 221.7,10.68 426.72,-3.18 613.37,-37.43 67.77,-12.46 132.83,32.39 145.28,100.17 12.46,67.78 -32.39,132.83 -100.16,145.29 -203.7,37.38 -427.81,52.49 -670.55,40.79 -79.17,-3.82 -160.26,-10.51 -243.19,-20.21 260.17,608.3 951.48,766.84 1067.66,466.09 146.88,-380.24 296.5,-476.6 206.94,13.31 -81.94,448.25 -211.37,545.06 -382.53,1505.41l337.89 46.61c-24.41,-280.02 -24.2,-873.95 152.05,-1528.9z"/>
    <path class="fil1" d="M10885.08 6054.85c-0.79,-17.49 0.87,-33.68 5.03,-48.93 -11.95,14.99 -23.77,29.02 -36.32,42.49 -82.56,184.69 -160.35,381.32 -234.6,585.4 -33.66,-28.8 -66.13,-58.69 -95.7,-91.12 -34.26,-37.56 -64.97,-78.91 -89.69,-126.53l-27.7 14.37c25.93,49.97 58.27,93.48 94.43,133.12 33.41,36.63 69.83,69.69 107.34,101.4 -80.83,224.05 -157.48,456.72 -231.56,692.19 -118.92,-89.67 -236.81,-179.6 -338.85,-273.39 -106.24,-97.65 -195.16,-199.39 -249.75,-309.2l-27.85 13.85c56.54,113.73 147.77,218.31 256.51,318.26 105.39,96.87 227.38,189.52 350.06,281.97 -56.98,181.84 -112.47,365.18 -167.18,547.32l-66.08 -23.75c-377.24,-135.29 -754.49,-270.57 -1035.92,-547l-21.84 22.27c286.22,281.13 666.75,417.59 1047.27,554.05l67.6 24.3 -34.29 114.32c-31.89,106.36 -63.59,212.09 -96.22,319.86l-12.28 40.58c-172.77,-54.03 -349.23,-91.66 -522.91,-128.69 -256.81,-54.75 -507.51,-108.21 -728.91,-211.29l-13.13 28.22c224.55,104.54 476.98,158.37 735.57,213.5 173.07,36.9 348.94,74.41 520.38,128.04 -19.04,63.03 -37.87,125.6 -56.44,187.63 -231.21,123.34 -450.99,218.04 -651.09,263.53 -200.03,45.47 -380.3,41.78 -532.48,-31.75l-13.46 28.03c159.12,76.9 346.12,81.09 552.75,34.12 195.3,-44.4 408.26,-134.53 631.75,-252.03 -121.82,408.09 -231.24,791 -309.68,1119.07 -96.81,404.89 -146.3,726.47 -113.65,909.27l16.18 2.23 15.33 -2.9c-33.6,-177.04 15.66,-496.64 112.45,-901.41 78.13,-326.77 187.31,-708.92 308.96,-1116.4 130.13,243.72 279.83,446.2 457.01,590.66 186.22,151.82 402.49,239.46 657.87,243.54l0.53 -31.16c-247.85,-3.95 -457.83,-89.08 -638.69,-236.54 -180.42,-147.1 -332.22,-356.38 -463.96,-609.19 18.64,-62.26 37.55,-125.09 56.67,-188.37 126.56,30.24 251.25,68.36 375.52,106.35 274.76,84 547.49,167.38 843,166.28l-0.1 -31.16c-290.68,1.09 -561.24,-81.62 -833.81,-164.95 -123.82,-37.85 -248.05,-75.83 -375.59,-106.38l12.07 -39.87c31.32,-103.42 63.68,-211.36 96.24,-319.97l34.44 -114.81c203.89,40.35 407.52,70.33 610.6,80.12 208.2,10.04 415.79,-1.1 622.44,-43.92l-6.28 -30.55c-204.07,42.28 -409.07,53.28 -614.65,43.37 -200.53,-9.67 -401.68,-39.18 -603.13,-78.95 54.49,-181.4 109.75,-363.98 166.48,-545.05 179.58,11.72 342.69,8.29 486.19,-13.14 147.69,-22.06 274.88,-63.22 378.2,-126.56l-16.32 -26.57c-99.56,61.04 -222.84,100.81 -366.5,122.26 -139.34,20.81 -297.67,24.38 -471.96,13.39 74.24,-236.03 151.06,-469.25 232.05,-693.7 49.85,-3.75 99.61,-10.69 149.25,-21.99 52.98,-12.07 105.86,-29.16 158.59,-52.73l-12.76 -28.4c-50.52,22.59 -101.47,39.03 -152.75,50.71 -43.34,9.87 -86.91,16.3 -130.64,20.14 74.66,-205.11 152.91,-402.59 235.96,-587.86z"/>
   </g>
   <ellipse class="fil2" cx="10126.34" cy="14367.89" rx="7742.29" ry="289.93"/>
   <g>
    <path class="fil0" d="M7510.95 12806.49c-81.83,-304.06 -235.88,-315.14 -178.56,1.25 120.31,664.16 -1172.99,1008.8 -1564.85,42.16 163.55,-2.52 319.18,-14.76 466.6,-35.63 239.97,-33.97 457.02,-90.84 650.21,-165.83 64.22,-24.69 96.27,-96.79 71.57,-161.02 -24.69,-64.22 -96.79,-96.27 -161.02,-71.57 -176.78,68.62 -375.78,120.71 -596.2,151.91 -51.35,7.27 -103.92,13.4 -157.72,18.34 -214.55,19.69 -407.02,-127.76 -443.86,-340.03 -10.23,-58.95 -18.14,-116.46 -23.87,-172.65 169.03,21.38 331.86,31.33 487.93,31.01 248.87,-0.52 479.96,-27.23 691.21,-75.43 67.09,-15.09 109.25,-81.72 94.16,-148.81 -15.08,-67.09 -81.71,-109.25 -148.8,-94.16 -194.8,44.45 -408,69.07 -637.72,69.55 -33.81,0.07 -67.99,-0.39 -102.53,-1.37 -113.34,-3.26 -209.56,-52.12 -279.05,-141.71 -69.49,-89.59 -92.88,-194.94 -67.85,-305.52 19.09,-84.28 43.32,-165.91 71.91,-245.54 123.12,56.27 243.46,102.03 360.53,138.01 207.93,63.92 407.83,97.78 596.76,105.59 68.72,2.7 126.62,-50.83 129.32,-119.55 2.69,-68.72 -50.83,-126.63 -119.55,-129.32 -166.31,-6.88 -344.83,-37.47 -533.38,-95.43 -25.2,-7.75 -50.56,-15.97 -76.04,-24.68 -70.91,-24.23 -122.07,-74.01 -148.23,-144.24 -26.17,-70.22 -20.05,-141.34 17.72,-206.06 24.42,-41.84 49.71,-83.48 75.73,-125.04 17.59,-28.08 34.73,-55.34 51.44,-81.8l0.84 0.65c131.04,101.07 270.35,174.35 413.68,222.65 65.14,21.99 135.78,-13.01 157.77,-78.15 21.98,-65.15 -13.01,-135.79 -78.16,-157.77 -79.67,-26.86 -158.33,-63.55 -234.92,-110.84 -35.47,-21.9 -58.1,-53.54 -67.38,-94.19 -9.29,-40.64 -2.63,-78.97 19.81,-114.11 197.48,-309.14 284.09,-455.91 255.8,-559.72 87.85,110.17 168.68,169.86 584.45,317.9 43.95,15.64 75.37,47.07 91,91.03 15.62,43.94 11.1,88.16 -13.11,128.03 -36.03,59.35 -76.29,113.75 -120.15,163.26 -45.62,51.41 -40.91,130.07 10.5,175.68 51.41,45.62 130.07,40.91 175.68,-10.5 100.14,-113.04 184.49,-245.96 247.99,-399.13 1.78,-4.28 3.53,-8.58 5.28,-12.89 92.01,30.55 182,65.3 270.44,105.04 82.84,37.24 137.17,106.89 153.12,196.31 15.95,89.41 -10.95,173.56 -75.82,237.13 -130.34,127.74 -264.61,230.61 -399.7,310.36 -59.32,35.02 -79,111.51 -43.97,170.82 35.02,59.32 111.51,79 170.82,43.97 162.17,-95.72 322.23,-219.98 475.78,-374.98 81.66,-82.42 161.64,-173.76 239.29,-274.36 146.21,113.06 277.02,241.99 385.57,385.4 52.09,68.82 67.97,149.97 45.65,233.36 -22.32,83.38 -76.62,145.75 -156.14,179.35 -39.38,16.63 -78.53,32.31 -117.44,47.04 -214.85,81.34 -422.84,134.24 -620.69,162.05 -68.07,9.79 -115.32,72.91 -105.53,140.98 9.79,68.06 72.91,115.31 140.97,105.53 214.57,-30.17 440.02,-87.49 672.77,-175.61 132.95,-50.34 268.11,-110.64 404.77,-181.57 36.39,119.35 58.72,244.86 64.63,376.09 0.87,19.31 1.37,38.38 1.52,57.2 1.19,149.09 -112.68,273.1 -261.34,284.59 -31.28,2.41 -62.25,4.36 -92.88,5.83 -221.7,10.69 -426.72,-3.17 -613.36,-37.42 -67.78,-12.46 -132.84,32.38 -145.29,100.16 -12.46,67.78 32.39,132.83 100.17,145.29 203.69,37.38 427.8,52.49 670.54,40.79 79.17,-3.81 160.26,-10.5 243.19,-20.21 -260.16,608.31 -951.48,766.85 -1067.66,466.09 -146.88,-380.23 -296.5,-476.59 -206.94,13.31 81.94,448.25 211.37,545.07 382.53,1505.42l-337.88 46.61c24.41,-280.03 24.19,-873.95 -152.06,-1528.9z"/>
    <path class="fil1" d="M6509.27 9636.36c0.79,-17.49 -0.87,-33.67 -5.02,-48.92 11.94,14.98 23.76,29.02 36.31,42.49 82.56,184.69 160.36,381.32 234.6,585.39 33.67,-28.8 66.13,-58.68 95.71,-91.11 34.25,-37.57 64.96,-78.91 89.68,-126.54l27.7 14.38c-25.93,49.96 -58.27,93.47 -94.43,133.11 -33.41,36.64 -69.83,69.7 -107.34,101.41 80.83,224.04 157.48,456.72 231.56,692.18 118.92,-89.66 236.82,-179.59 338.85,-273.38 106.24,-97.65 195.16,-199.4 249.75,-309.2l27.85 13.85c-56.54,113.72 -147.77,218.31 -256.51,318.26 -105.39,96.86 -227.38,189.51 -350.05,281.96 56.98,181.84 112.46,365.19 167.17,547.33l66.09 -23.76c377.23,-135.28 754.48,-270.56 1035.91,-546.99l21.84 22.27c-286.21,281.12 -666.75,417.59 -1047.27,554.05l-67.6 24.3 34.29 114.31c31.89,106.37 63.59,212.1 96.22,319.86l12.29 40.58c172.76,-54.03 349.23,-91.66 522.9,-128.68 256.81,-54.75 507.51,-108.21 728.91,-211.29l13.13 28.21c-224.55,104.55 -476.98,158.38 -735.57,213.51 -173.07,36.9 -348.94,74.41 -520.38,128.03 19.04,63.03 37.87,125.61 56.44,187.63 231.21,123.34 450.99,218.05 651.1,263.54 200.02,45.47 380.29,41.78 532.47,-31.76l13.47 28.04c-159.13,76.89 -346.13,81.09 -552.75,34.11 -195.31,-44.39 -408.27,-134.53 -631.76,-252.02 121.82,408.08 231.24,791 309.68,1119.06 96.81,404.9 146.3,726.48 113.65,909.28l-16.17 2.23 -15.33 -2.9c33.59,-177.04 -15.67,-496.65 -112.46,-901.42 -78.12,-326.77 -187.31,-708.91 -308.96,-1116.39 -130.13,243.71 -279.83,446.19 -457.01,590.65 -186.22,151.83 -402.49,239.47 -657.87,243.54l-0.53 -31.16c247.85,-3.95 457.83,-89.07 638.69,-236.53 180.43,-147.1 332.22,-356.39 463.96,-609.19 -18.64,-62.27 -37.55,-125.09 -56.67,-188.38 -126.56,30.25 -251.25,68.37 -375.51,106.36 -274.77,84 -547.5,167.38 -843,166.27l0.09 -31.15c290.68,1.09 561.24,-81.63 833.82,-164.96 123.81,-37.85 248.04,-75.83 375.58,-106.38l-12.06 -39.86c-31.33,-103.43 -63.69,-211.36 -96.25,-319.98l-34.43 -114.81c-203.9,40.35 -407.52,70.34 -610.61,80.13 -208.2,10.04 -415.79,-1.11 -622.44,-43.92l6.28 -30.56c204.07,42.29 409.07,53.29 614.66,43.37 200.52,-9.67 401.67,-39.18 603.12,-78.95 -54.49,-181.4 -109.75,-363.97 -166.48,-545.05 -179.58,11.72 -342.69,8.3 -486.19,-13.14 -147.69,-22.05 -274.87,-63.21 -378.19,-126.56l16.32 -26.56c99.56,61.03 222.84,100.8 366.49,122.26 139.34,20.81 297.67,24.37 471.96,13.38 -74.24,-236.03 -151.06,-469.24 -232.05,-693.69 -49.85,-3.76 -99.61,-10.7 -149.25,-22 -52.98,-12.06 -105.86,-29.15 -158.58,-52.73l12.75 -28.39c50.52,22.59 101.48,39.03 152.76,50.71 43.33,9.86 86.9,16.29 130.63,20.13 -74.66,-205.1 -152.91,-402.59 -235.96,-587.86z"/>
   </g>
   <path class="fil3" d="M16129.85 8282.5l20.12 21.26c111.17,117.52 163.24,257.6 149.14,401.26l-506.39 5166.24c-9.17,93.55 -56.82,173.3 -132.46,221.73 -75.64,48.39 -173.07,61.53 -270.88,36.46l-889.07 -3981.72 1629.54 -1865.23z"/>
   <path class="fil3" d="M3916.3 13881.1l8372.36 0c74.39,0 135.2,60.87 135.2,135.2l0 19.14c0,183.06 -149.38,332.45 -332.44,332.45l-7977.88 0c-183.06,0 -332.45,-149.34 -332.45,-332.45l0 -19.14c0,-74.39 60.82,-135.2 135.21,-135.2z"/>
   <path class="fil4" d="M6933.72 13881.1l1497.58 0 0 40.45c0,85.53 -69.94,155.46 -155.47,155.46l-1186.64 0c-85.53,0 -155.47,-69.93 -155.47,-155.46l0 -40.45z"/>
   <path class="fil4" d="M10674.38 13881.1l4900.13 0c74.39,0 135.2,60.84 135.2,135.2l0 19.14c0,183.09 -149.35,332.45 -332.44,332.45l-4505.64 0c-183.09,0 -332.45,-149.34 -332.45,-332.45l0 -19.14c0,-74.39 60.82,-135.2 135.2,-135.2z"/>
   <path class="fil5" d="M15687.12 13748.33l517.4 -5278.89c6.22,-63.53 -16.57,-125.41 -65.49,-177.56 -48.9,-52.19 -110.24,-80.08 -176,-80.08l-6582.23 0c-164.31,0 -285.14,106.62 -300.7,265.32l-529.69 5403.98 6986.26 0c82.23,0 142.65,-53.36 150.45,-132.77z"/>
   <polygon class="fil5" points="15516.55,13712.98 16039.26,8379.91 9263.67,8379.91 8740.93,13712.98 "/>
   <path class="fil3" d="M14144.43 14030.9l657.68 0c44.39,0 80.76,36.36 80.76,80.75l0 0c0,44.4 -36.37,80.77 -80.76,80.77l-657.68 0c-44.39,0 -80.75,-36.37 -80.75,-80.77l0 0c0,-44.39 36.36,-80.75 80.75,-80.75zm-1021.09 0l657.68 0c44.39,0 80.76,36.36 80.76,80.75l0 0c0,44.4 -36.37,80.77 -80.76,80.77l-657.68 0c-44.39,0 -80.75,-36.37 -80.75,-80.77l0 0c0,-44.39 36.36,-80.75 80.75,-80.75z"/>
   <polygon class="fil6" points="9502.27,8780.91 9037.27,13712.98 15220.64,13712.98 15685.64,8780.91 "/>
   <path class="fil7" d="M9502.27 8780.91l-56.56 599.86 6183.38 0 56.56 -599.86 -6183.38 0zm632.87 1606.45c-6.13,59.61 -12.27,119.22 -18.39,178.82l2126.35 0 16.86 -178.82 -2124.82 0zm2439.02 178.82l2211.08 0c6.12,-59.6 12.26,-119.21 18.39,-178.82l-2212.62 0 -16.85 178.82zm-2407.49 -547.33l-18.41 178.82 2129.58 0 16.86 -178.82 -2128.03 0zm2442.23 178.82l2207.86 0 18.4 -178.82 -2209.41 0 -16.85 178.82zm-2505.29 558.2c-6.12,59.61 -12.26,119.22 -18.39,178.82l2123.14 0 16.85 -178.82 -2121.6 0zm2435.8 178.82l2214.3 0c6.14,-59.6 12.27,-119.21 18.41,-178.82l-2215.85 0 -16.86 178.82zm-2467.3 189.69c-6.14,59.62 -12.26,119.23 -18.4,178.82l2119.9 0 16.87 -178.82 -2118.37 0zm2432.56 178.82l2217.53 0c6.14,-59.59 12.27,-119.2 18.4,-178.82l-2219.06 0 -16.87 178.82zm-2464.08 189.69c-6.14,59.62 -12.26,119.22 -18.39,178.83l2116.67 0 16.87 -178.83 -2115.15 0zm2429.34 178.83l2220.76 0c6.13,-59.61 12.26,-119.21 18.39,-178.83l-2222.29 0 -16.86 178.83zm-2460.86 189.68c-6.13,59.61 -12.26,119.22 -18.39,178.83l2113.45 0 16.86 -178.83 -2111.92 0zm2426.12 178.83l2223.98 0c6.14,-59.61 12.26,-119.22 18.4,-178.83l-2225.52 0 -16.86 178.83zm-2457.64 189.7c-6.14,59.6 -12.27,119.21 -18.39,178.81l2110.23 0 16.85 -178.81 -2108.69 0zm2422.89 178.81l2227.21 0c6.13,-59.6 12.27,-119.21 18.4,-178.81l-2228.75 0 -16.86 178.81zm-2454.4 189.67c-6.13,59.62 -12.27,119.23 -18.4,178.83l2107 0 16.87 -178.83 -2105.47 0zm2419.66 178.83l2230.44 0c6.12,-59.6 12.26,-119.21 18.39,-178.83l-2231.97 0 -16.86 178.83zm-2451.18 189.7l-18.4 178.82 2103.78 0 16.87 -178.82 -2102.25 0zm2416.44 178.82l2233.65 0 18.4 -178.82 -2235.19 0 -16.86 178.82z"/>
   <g>
    <polygon class="fil8" points="12110.53,7092.19 12030.79,7477.4 12174.32,7503.05 12295.1,7116.46 "/>
    <path class="fil0" d="M12146.07 6878.02l-58.09 232.89 198.36 68.46 191.48 -381.65 -139.38 -84.87 -84.9 -12.67c-53.12,46.28 -89.71,106.59 -107.47,177.84z"/>
    <path class="fil4" d="M13040.75 8174.22l-2.74 37.77 -1029.97 -0.38 -209.84 -59.61 -24.81 342.22c-4.72,65.23 -25.23,120 -64.48,172.3l-386.44 514.91 -129.09 -63.51 338.46 -1153.07c14.44,-49.22 38.41,-88.04 75.93,-123.04l73.32 -68.35 1266.32 -120.99 44.44 225.66 18 53.32c27.63,81.84 37.15,156.62 30.9,242.77z"/>
    <path class="fil9" d="M12137.64 7695.92l92.38 -326.05 -27.77 -195.81c-39.07,-20.13 -63.84,-58.56 -60.66,-102.43l0 0c1.07,-14.75 5.21,-28.89 11.84,-41.92l-0.01 0 42.71 -85.3 57.41 -244.23 291.41 -119.72 409.2 126.52 -9.53 88.26c-62.71,99.18 -77.03,266.44 -115.28,318.5 -88.9,120.97 -75.98,277.89 11.28,389.84l128.68 165.11 23 203.26 -43.73 -103.84 -26.03 124.82c-172.63,-59.5 -357.8,-54.26 -552.45,0l-115.35 -139.31 -127.59 -15.41 10.49 -42.29z"/>
    <path class="fil0" d="M12223.23 7321.95l-20.98 -147.89c-39.07,-20.13 -63.84,-58.56 -60.66,-102.43l0 0c1.18,-16.2 6.06,-31.65 13.85,-45.72 45.22,35.44 109.88,37.93 162.7,5.67 20.59,-12.57 45.73,-12.57 64.5,0 89.44,59.94 215.87,32.21 282.45,-61.95l84.05 -118.83 125.89 131.83c-14.95,56.49 -27.67,106.59 -45.69,131.11 -88.9,120.97 -75.98,277.89 11.28,389.84l68.27 87.59c-132.59,-108.99 -282.12,-140.06 -451.04,-131.69l15.11 -56.8c-13.67,-57.48 -21.15,-73.37 -75.39,-95.29 -54.23,-21.93 -117.3,-17.17 -171.41,12.93l-2.93 1.63z"/>
    <polygon class="fil9" points="12783.19,6669.72 12727.45,6512.94 12422.85,6512.94 12369.96,6672.77 "/>
    <path class="fil10" d="M12683.42 5903.77c-108.75,0 -203.31,88.17 -211.2,196.92 -7.89,108.75 73.88,196.91 182.63,196.91 108.75,0 203.31,-88.16 211.2,-196.91 7.89,-108.75 -73.88,-196.92 -182.63,-196.92z"/>
    <path class="fil7" d="M12651.41 5980.27c-49.87,0 -93.22,40.43 -96.84,90.29 -3.62,49.87 33.88,90.3 83.74,90.3 49.87,0 93.23,-40.43 96.84,-90.3 3.62,-49.86 -33.87,-90.29 -83.74,-90.29z"/>
    <path class="fil10" d="M12506.98 5941.45c-131.18,0 -245.24,106.35 -254.76,237.53 -9.51,131.19 89.13,237.54 220.31,237.54 131.18,0 245.24,-106.35 254.76,-237.54 9.51,-131.18 -89.12,-237.53 -220.31,-237.53z"/>
    <polygon class="fil11" points="12624.52,6373.56 12664.49,6522.42 12505.09,6549.09 12474.61,6660.95 12434.77,6391.62 "/>
    <path class="fil8" d="M12547.55 6541.99l-42.46 7.1 -14.57 53.47c-7.32,5.48 -14.79,10.32 -22.41,14.47l-33.34 -225.41 181.84 -17.31c-13.38,65.06 -37.83,123.03 -69.06,167.68z"/>
    <path class="fil11" d="M12288.57 6103.2c-10.92,35.66 -18.45,74.25 -21.73,114.56 -14.66,180.62 61.62,327.02 170.35,327.02 108.74,0 208.77,-146.4 223.43,-327.02 2.74,-33.73 2.3,-66.27 -0.92,-96.89l-186.49 -33.75 -184.64 16.08z"/>
    <path class="fil10" d="M12629.14 6361.03l-37.16 -36.25c-120.36,-7.82 -191.84,-54.32 -241.73,-163.92 -25.04,70.95 -53.39,108.95 -85.07,113.37l-8.54 -80.39 36.48 -123.28 285.64 -15.25 115.49 56.78 -9.43 129.94 -55.68 119z"/>
    <path class="fil11" d="M12594.25 6262.91c-26.17,0 -49.58,30.23 -52.28,67.53 -2.71,37.29 16.32,67.53 42.48,67.53 26.17,0 49.58,-30.24 52.28,-67.53 2.71,-37.3 -16.32,-67.53 -42.48,-67.53z"/>
    <path class="fil9" d="M12464.44 6464.03l-127.59 0c32.92,38.02 90.27,46.16 127.59,0z"/>
    <polygon class="fil12" points="12553.46,6713.33 12545.01,6666.66 12479.61,6679.25 12426.04,6660.95 12406.33,6709.59 12426.92,6693.33 12440.67,6740.95 12279.6,7122.88 12269.7,7259.42 12334.72,7386.23 12422.9,7267.65 12431.4,7120.97 12473.89,6742.62 12510.03,6694.05 "/>
    <polygon class="fil11" points="12905.8,7149.26 12801.15,7429.13 12653.51,7350.23 12726.59,7116.46 "/>
    <path class="fil8" d="M12892.56 7184.67l-66.47 177.77c-6.3,-29.75 -22.73,-56.27 -47.32,-74.74 -27.79,-20.87 -63.05,-29.21 -98.16,-24.18l37.88 -121.15 174.07 42.3z"/>
    <path class="fil11" d="M12801.15 7429.13c-162.71,160.79 -307.25,243.74 -545.61,288.74l-44.45 -37.11 458.3 -353.54 131.76 101.91z"/>
    <path class="fil9" d="M12990.37 7022.65l-92.63 223.84 -208.33 -38.25 70.84 -413.29 193.9 -87.98 18.75 31.02c52.24,86.44 58.34,185.88 17.47,284.66z"/>
    <path class="fil10" d="M11592.25 7767.64l916.46 0c9.94,0 17.46,8.11 16.74,18.05l0 0c-0.72,9.94 -9.43,18.05 -19.35,18.05l-916.48 0c-9.92,0 -17.45,-8.11 -16.73,-18.05l0 0c0.72,-9.94 9.42,-18.05 19.36,-18.05z"/>
    <path class="fil9" d="M11882.29 9118.92l36.68 21.18c83.78,51.67 44.29,204.05 32.52,384.49 -3.09,47.4 -10.35,117.21 -44.91,146.63 -67.28,57.29 -243.53,27.01 -191.24,-185.88 15.64,-63.69 35.25,-126.18 58.68,-187.03 17.59,-45.68 31.19,-93.04 40.62,-141.45l67.65 -37.94z"/>
    <path class="fil10" d="M11444.61 7225.41l712.57 0c11.96,0 23.6,9.77 25.91,21.72l98.54 511.84c2.31,11.95 -5.58,21.72 -17.54,21.72l-712.56 0c-11.95,0 -23.6,-9.77 -25.91,-21.72l-98.54 -511.84c-2.3,-11.95 5.58,-21.72 17.53,-21.72z"/>
    <ellipse class="fil13" transform="matrix(0.631618 -0 -0.0458089 0.631618 11854.4 7503.05)" rx="193.27" ry="116.41"/>
    <path class="fil12" d="M12068.86 8211.56l51.28 172.1c24.71,82.95 25.55,161.23 2.6,244.78l-173.04 630.24 -146.93 -10.85 -91.74 -775.07c-8.01,-67.76 -8.98,-126.37 -3.2,-194.39l12.89 -151.85c4.47,-52.53 26.74,-95.92 65.65,-127.84l14.79 -12.14c38.34,-31.47 89.55,-31.45 127.87,0.04l47.2 38.79c11.33,9.31 21.33,19.3 30.1,30.11l0 0 172.66 156.14 -110.13 -0.06z"/>
    <path class="fil9" d="M11322.47 9181.43l36.94 43.29c12.49,16.34 17.28,37.29 13.15,57.43 -4.14,20.15 -16.81,37.51 -34.73,47.6 -46.94,26.43 -135.57,71.51 -202.15,127.26 -50.88,42.61 -121.02,54.15 -184.72,35.55 -16.56,-4.84 -29.57,-17.73 -34.57,-34.24 -4.99,-16.52 -1.3,-34.45 9.81,-47.65 37.99,-45.17 39.71,-42.56 84.22,-81.33l312.05 -147.91z"/>
    <path class="fil11" d="M11802.77 9247.83l-19.87 179.68c1.79,83.59 79.04,65.13 103.47,0l63.33 -168.83c3.42,-29.3 -8.47,-58.23 -30.87,-75.17 -22.41,-16.94 -51.65,-19.09 -75.99,-5.61 -24.33,13.48 -36.83,40.63 -40.07,69.93z"/>
    <path class="fil11" d="M11193.38 9117.92l-182.96 211.42c42.33,18.01 128.55,19.32 192.85,-27.32 54.12,-39.26 87.35,-127.3 119.2,-120.59l-31.62 -42.13c-22.72,-30.26 -74.33,-48.11 -97.47,-21.38z"/>
   </g>
   <g>
    <path class="fil10" d="M14565.32 13680.62l-139.98 128.97 -56.55 -0.57 -6.76 47.8 53.57 23.04c91.35,0 246.9,0 338.25,0l18.96 -113.74 -207.49 -85.5z"/>
    <path class="fil11" d="M13132.92 10170.55l-58.66 -50.8 -107.38 -19.09c-6.56,30.48 34.88,40.58 76.92,46l-51.47 13.66 -62.04 46.13 -1.59 105.79c26.83,-1.42 41.23,-26.82 38.15,-70.45l45.97 37.73 106.15 -14.3 13.95 -94.67z"/>
    <path class="fil7" d="M13992.47 9852.87l-200.51 433.87 70.59 94.72 -80.23 -73.87 -21.86 47.32 209.77 167.49 113.63 -166.69c-68.12,-87.39 -131.64,-191.55 -95.95,-356.19l25.58 -118 -21.02 -28.65z"/>
    <polygon class="fil10" points="13846.05,13684.32 13621.59,13811.69 13532.05,13811.14 13520.32,13858.35 13604.66,13881.1 13840.83,13881.1 13922.07,13841.83 13923.5,13881.1 14038.61,13881.1 14071.1,13768.76 13916.03,13677.18 "/>
    <path class="fil4" d="M14765.59 10945.7l82.09 181.8c73.13,161.96 88.59,323.22 47.24,492.68l-8.57 35.12c-16.94,318.92 -33.88,637.83 -50.81,956.75 38.9,99.7 66.54,198.62 86.38,297 -29.56,295.69 -78.12,583.99 -148.79,863.73 -11.21,12.22 -22.42,24.44 -33.63,36.66l-157.61 -120.58 -95.71 64.68 56.97 -138.75 46.03 -982.81 -216.73 -877.67 -282.95 -677.23 676.09 -131.38z"/>
    <path class="fil12" d="M14372.45 11754.31c-39.39,276.03 -78.76,552.07 -118.14,828.11 19.36,111.55 30.08,226.65 33.22,344.87 -65.85,301.7 -125.64,542.43 -216.44,841.46l-227.63 -84.43 65.04 -184.34 50.94 -1876.78c4.51,-166.16 35.66,-312.41 100.88,-473.88l29.18 -72.24 156.64 238.71 126.31 438.52z"/>
    <path class="fil7" d="M14808.73 10998.57l52.95 -373.65c47.09,-69.14 90.13,-144.38 127.56,-223.68l-67.73 -261.87 87.91 217.47c57.01,-130.41 98.58,-270.42 118.02,-411.4l-14.74 -253.9 -546.52 -170.83 -564.67 187.52 -26.75 261.67c-12.75,124.65 23.82,240.13 107.77,340.3l1.78 2.13 -11.3 715.91 106.43 100.53 89.03 -60.51 77.03 104.47 463.23 -174.16z"/>
    <polygon class="fil7" points="14046.01,10550.41 13754.47,10281.93 13720.85,10340.47 13670.9,10335.01 13796.09,10666.96 "/>
    <path class="fil11" d="M13766.01 10400.35l-535.44 -117.47 -63.12 29.02c144.8,252.07 384.47,352.72 649.66,312.19l-51.1 -223.74z"/>
    <ellipse class="fil10" cx="14249.19" cy="9090.24" rx="70" ry="136.81"/>
    <polygon class="fil7" points="14828.3,9629.31 14721.16,9463.26 14285.54,9510.9 14221.03,9746.39 "/>
    <polygon class="fil11" points="14635.3,9512.3 14635.3,9158.07 14384.54,9193.15 14342.45,9549.12 14387.1,9556.37 14393.64,9654.74 14350.3,9820.14 14385.35,10024.57 14383.6,9849.21 14485.31,9652.81 14493.07,9553.46 "/>
    <path class="fil8" d="M14366.6 9344.83l-20.94 177.18c7.2,0.94 14.55,1.44 22.05,1.44 92.32,0 181.64,-72.53 234.79,-178.62l-235.9 0z"/>
    <path class="fil11" d="M14244.24 9018.05c-14.31,35.94 -24.6,74.85 -29.79,115.48 -23.22,182.07 64.73,329.67 196.44,329.67 131.71,0 257.31,-147.6 280.53,-329.67 4.34,-34 4.79,-66.8 1.81,-97.67l-448.99 -17.81z"/>
    <ellipse class="fil10" cx="14395.55" cy="8939.11" rx="267.25" ry="149.53"/>
    <ellipse class="fil10" cx="14623.03" cy="9103.77" rx="111.36" ry="198.06"/>
    <ellipse class="fil11" cx="14602.35" cy="9238.31" rx="55.68" ry="80.16"/>
    <path class="fil9" d="M14292.57 9350.66c75.64,84.99 108.25,57.18 139.98,27.04 -46.66,-9.01 -93.32,-18.03 -139.98,-27.04z"/>
    <path class="fil11" d="M15122.47 10484.31l-323.21 507.06 22.75 46.47c288.03,-39.32 451.84,-200.57 514.06,-461.53l-213.6 -92z"/>
    <path class="fil11" d="M14799.25 10991.38l-90.39 158.75 61.88 174.46c110.95,-157.4 115.59,-312.27 28.51,-333.21z"/>
    <path class="fil11" d="M13238.63 10284.65l-105.71 -114.1 -120.1 108.97c77.64,66.25 142.19,85.68 194.36,60.72l52.21 6.09 -20.76 -61.68z"/>
    <path class="fil8" d="M13182.44 10221.32l-156.85 -36.83c-16.16,32.49 7.39,50.88 89.91,48.5 -12.78,41.72 69.39,100.82 95.92,19.62l-28.98 -31.29z"/>
    <polygon class="fil14" points="14382.99,10115.91 14413.46,10373.61 14338.37,10583.6 14371.39,10736.31 14288.93,11052.23 14345.16,10736 14314.68,10580.42 14393.17,10369.93 "/>
    <polygon class="fil7" points="15114.64,9724.96 15348.66,10400.76 15118.18,10466.49 15357.99,10427.71 15366.94,10453.55 15072.64,10513.2 14921.51,10139.37 "/>
    <polygon class="fil7" points="15412.78,10418.86 15021.53,10482.11 15046.77,10544.72 15011.61,10580.61 15349.93,10687.37 "/>
   </g>
   <g>
    <path class="fil15" d="M11979.47 11018.55l-109.36 163.44c-132.84,198.55 -208.65,429.74 -219.15,668.4l-152.06 1596.47c-23.34,245.07 -228.39,432.7 -474.56,434.24l-720.86 0c-84.28,0 -164.74,-35.23 -221.92,-97.15 -57.18,-61.94 -85.88,-144.94 -79.15,-228.96l216.27 -2096.49c16.87,-163.47 -87.85,-314.87 -246.75,-356.76l246.75 -856.68c53.92,-11.46 60.35,-19.92 114.83,-18.03l1645.96 791.52z"/>
    <path class="fil16" d="M10681.96 11018.55l-178.33 1178.82 -158.76 -15.01c-220.57,-20.87 -417.88,-145.89 -530.94,-336.41l51.06 -81.09c124.26,-197.33 162.87,-436.74 106.94,-663.12l187.41 -280.01 522.62 196.82z"/>
    <path class="fil12" d="M12081.25 8931.23c385.24,0 697.54,467.26 697.54,1043.66 0,576.4 -312.3,1043.66 -697.54,1043.66l-1736.38 0 0 -2087.32 1736.38 0z"/>
    <path class="fil9" d="M10344.87 8931.23c385.25,0 697.54,467.26 697.54,1043.66 0,576.4 -312.29,1043.66 -697.54,1043.66 -744.34,137.17 -1449.17,437.13 -2064.07,878.43l-340.92 244.66 -803.55 -2166.75 803.55 -2166.74 340.92 244.65c614.9,441.3 1319.73,741.26 2064.07,878.43z"/>
    <ellipse class="fil12" cx="7136.33" cy="9974.89" rx="1655.87" ry="2477.51"/>
    <ellipse class="fil3" cx="7085.85" cy="9974.89" rx="1339.59" ry="2194.85"/>
    <path class="fil5" d="M8204.4 8767c139.66,346.48 221.05,761.58 221.05,1207.89 0,1212.18 -599.78,2194.85 -1339.59,2194.85 -239.34,0 -463.97,-102.95 -658.42,-283.13 110.84,-1305.32 790.93,-2437.75 1776.96,-3119.61z"/>
    <path class="fil1" d="M7425.26 8931.23c-385.24,0 -697.54,467.26 -697.54,1043.66 0,576.4 312.3,1043.66 697.54,1043.66l839.32 0c102.58,-310.4 160.87,-665.87 160.87,-1043.66 0,-377.78 -58.29,-733.26 -160.87,-1043.66l-839.32 0z"/>
    <path class="fil9" d="M7425.26 8931.23c-385.24,0 -697.54,467.26 -697.54,1043.66 0,576.4 312.3,1043.66 697.54,1043.66 385.24,0 697.54,-467.26 697.54,-1043.66 0,-576.4 -312.3,-1043.66 -697.54,-1043.66z"/>
   </g>
   <g>
    <path class="fil17" d="M4271.21 13568.25l17.06 -82.19 18.63 0c44.97,0 85.87,35.29 92.97,80.22l10.89 68.93c11.52,72.99 12.32,136.75 2.61,210l-4.76 35.89 -94.2 0 -34.33 -90.75c-23.18,-61.28 -28.61,-117.84 -17.11,-178.59l8.24 -43.51zm826.96 0l-17.06 -82.19 -18.63 0c-44.97,0 -85.87,35.29 -92.97,80.22l-10.89 68.93c-11.52,72.99 -12.32,136.75 -2.61,210l4.76 35.89 94.2 0 34.33 -90.75c23.18,-61.28 28.61,-117.84 17.11,-178.59l-8.24 -43.51z"/>
    <path class="fil11" d="M4415.44 13305.75l-20.97 210.13 4.64 173.04 -46.27 -5.34 -65.77 43.68c-20.15,-66.75 -12.25,-133.49 5.73,-200.24l-17.69 -180.07 140.33 -41.2zm538.51 0l20.97 210.13 -4.64 173.04 46.27 -5.34 65.76 43.68c20.16,-66.75 12.26,-133.49 -5.72,-200.24l17.68 -180.07 -140.32 -41.2z"/>
    <path class="fil12" d="M4345.53 11068.99l-183.63 414.85 153.48 860.63 -92.77 287.46 54.31 843.02 134.8 -24.9c67.32,-588.24 135.22,-1095.46 204.31,-1683.35l29.35 -320.65 39.31 0 39.32 0 29.35 320.65c69.08,587.89 136.99,1095.11 204.31,1683.35l134.8 24.9 54.31 -843.02 -92.77 -287.46 153.47 -860.63 -183.63 -414.85 -339.16 -52.46 -339.16 52.46zm339.16 21.5l-6.77 0 6.77 -73.96 6.78 73.96 -6.78 0z"/>
    <circle class="fil17" cx="4681.31" cy="9312.01" r="190.07"/>
    <circle class="fil9" cx="4681.31" cy="9326.84" r="132.8"/>
    <circle class="fil17" cx="4681.31" cy="9459.47" r="244.77"/>
    <polygon class="fil7" points="4199.35,10030.26 4199.35,10079.98 4334.76,10285.09 4405.03,10602.28 4311.63,10898.78 4249.19,11012.43 4579.65,11300.35 4681.32,11238.66 4784.9,11300.35 5115.36,11012.43 5052.96,10898.78 4960.01,10602.28 5029.79,10285.09 5165.21,10075.78 5165.21,10030.26 4681.32,9872.35 "/>
    <polygon class="fil7" points="4533.95,9827.85 4830.6,9827.85 4864.37,10064.28 4500.19,10064.28 "/>
    <path class="fil7" d="M4485.47 10121.98l393.61 0c106.32,0 193.29,86.98 193.29,193.29l0 0c0,106.32 -86.97,193.3 -193.29,193.3l-393.61 0c-106.31,0 -193.29,-86.98 -193.29,-193.3l0 0c0,-106.31 86.98,-193.29 193.29,-193.29z"/>
    <path class="fil9" d="M4199.34 10079.98l-109.71 312.77 185.17 78.88 24.16 -39.71c-8.8,-22.05 -13.65,-46.05 -13.65,-71.14l0 0c0,-93.75 67.64,-172.46 156.53,-189.75l-242.5 -91.05z"/>
    <path class="fil11" d="M4274.8 10471.63l-141.07 248.26c-157.74,146.85 -298.18,218.64 -530.27,247.13l-43.51 -39.25 444.83 -316.3 104.17 -210.48 165.85 70.64z"/>
    <path class="fil11" d="M3584.71 10914.23l-114.29 62.45 59.04 75.13c78.93,-39.32 99.19,-93.51 55.25,-137.58z"/>
    <path class="fil11" d="M3470.42 10976.68l-63.11 52.32 -11.06 89.74c21.28,11.6 31.55,-6.01 31.48,-51.01l15.47 34.25 24.6 16.43 19.85 -5.61 35.06 35.68c12.42,-11.1 6.36,-25.13 -9.56,-42.69l24.35 -8.6c-0.79,-10.35 -7.64,-14.16 -18.19,-13.94l9.33 -5.47c-1.53,-7.75 -7.86,-12.34 -13.91,-11.37l16.96 -15.73 -35.67 -60.18 -25.6 -13.82z"/>
    <polygon class="fil0" points="4889.76,10476.98 4676.09,10424.37 4474.8,10476.98 4676.08,10461.32 "/>
    <path class="fil18" d="M3504.96 10956.84l-21.76 95.09c27.36,-4.08 40.58,-20.76 33.92,-55.08 36.3,-8.48 48.37,-27.2 25.63,-60.66l-37.79 20.65z"/>
    <polygon class="fil19" points="4584.44,9986.28 4605.91,9909.88 4682.28,9932.16 4758.64,9909.88 4780.11,9986.28 4735.76,9957.02 4716.98,9999.23 4704.3,10027.73 4741.84,10260.2 4782.79,10860.54 4682.28,11033.35 4581.76,10860.54 4622.71,10260.2 4660.25,10027.73 4647.57,9999.23 4628.79,9957.02 "/>
    <path class="fil18" d="M4491.31 9543.4c21.28,0 42.84,26.76 48.14,59.76 5.31,33.01 -7.65,59.76 -28.93,59.76 -21.28,0 -42.83,-26.75 -48.14,-59.76 -5.3,-33 7.65,-59.76 28.93,-59.76zm380 0c-21.28,0 -42.83,26.76 -48.14,59.76 -5.3,33.01 7.66,59.76 28.94,59.76 21.28,0 42.83,-26.75 48.13,-59.76 5.3,-33 -7.65,-59.76 -28.93,-59.76z"/>
    <polygon class="fil11" points="4581.09,9704.24 4775.9,9704.24 4775.9,9854.05 4682.27,9885.3 4581.09,9854.05 "/>
    <path class="fil18" d="M4581.09 9704.24l194.82 0 0 137.54c-19.79,12.18 -41.75,18.95 -64.92,18.95 -52.76,0 -99.95,-35.05 -129.9,-89.21l0 -67.28z"/>
    <path class="fil11" d="M4860.54 9387.62c8.14,34.82 12.77,72.53 13.11,111.9 1.52,176.44 -83.36,319.47 -189.58,319.47 -106.22,0 -193.57,-143.03 -195.09,-319.47 -0.28,-32.95 2.44,-64.73 7.76,-94.64l184.57 -32.98 179.23 15.72z"/>
    <path class="fil9" d="M4622.07 9726.06l124.63 0c-34.85,37.13 -91.45,45.09 -124.63,0z"/>
    <path class="fil17" d="M4873.65 9508.16l27.78 -33.49 -11.33 -122.72 -428.91 15.38 9.68 107.34 18.26 33.96c102.03,0 226.87,-40.48 273.66,-115.13 13.12,46.34 66.64,100.41 110.86,114.66z"/>
    <path class="fil9" d="M5165.21 10075.79l109.72 312.77 -185.17 78.89 -24.16 -39.72c8.79,-22.05 13.64,-46.05 13.64,-71.14l0 0c0,-93.74 -67.64,-172.45 -156.53,-189.75l242.5 -91.05z"/>
    <polygon class="fil11" points="5089.75,10467.44 5198.87,10715.71 5348.01,10701.42 5255.6,10396.8 "/>
    <polygon class="fil17" points="4491.66,10806.41 4781.37,10558.02 5118.91,10951.7 4829.2,11200.1 "/>
    <path class="fil11" d="M5348.01 10701.42c-157.74,146.85 -298.19,218.64 -530.28,247.13l-43.51 -39.26 444.83 -316.29 128.96 108.42z"/>
    <path class="fil11" d="M4798.98 10895.76c-38.1,20.82 -76.19,41.63 -114.29,62.45l59.04 75.13c78.93,-39.32 99.18,-93.51 55.25,-137.58z"/>
    <path class="fil11" d="M4684.69 10958.21l-50.12 39.78 -37.53 67.79c0,28.41 34.95,-11.38 47.49,-31.17l50.53 52.79 32.41 -5.96 -14.71 -17.15 33.2 -32.08 -35.67 -60.18 -25.6 -13.82z"/>
    <path class="fil11" d="M4734.39 10931.84l-99.38 19.18c1.15,18.27 38.57,18.74 96.41,9.16l2.97 -28.34z"/>
   </g>
  </g>
 </g>
</svg>
