<?xml version="1.0" encoding="UTF-8"?>
<!DOCTYPE svg PUBLIC "-//W3C//DTD SVG 1.1//EN" "http://www.w3.org/Graphics/SVG/1.1/DTD/svg11.dtd">
<!-- Creator: CorelDRAW 2017 -->
<svg xmlns="http://www.w3.org/2000/svg" xml:space="preserve" width="210mm" height="297mm" version="1.1" style="shape-rendering:geometricPrecision; text-rendering:geometricPrecision; image-rendering:optimizeQuality; fill-rule:evenodd; clip-rule:evenodd"
viewBox="0 0 21000 29700"
 xmlns:xlink="http://www.w3.org/1999/xlink">
 <defs>
  <style type="text/css">
   <![CDATA[
    .fil0 {fill:none}
    .fil8 {fill:#1A1A1A}
    .fil12 {fill:#332D2A}
    .fil5 {fill:#333333}
    .fil13 {fill:#990000}
    .fil14 {fill:#CC3E0E}
    .fil10 {fill:#E34814}
    .fil4 {fill:#F57070}
    .fil11 {fill:#FF6633}
    .fil2 {fill:#FF9696}
    .fil1 {fill:#FFBDBD}
    .fil16 {fill:#FFD1D1}
    .fil17 {fill:#FFD6D6}
    .fil9 {fill:#FFE3E3}
    .fil3 {fill:#FFEDED}
    .fil6 {fill:white}
    .fil7 {fill:white}
    .fil15 {fill:white;fill-rule:nonzero}
   ]]>
  </style>
 </defs>
 <g id="Слой_x0020_1">
  <metadata id="CorelCorpID_0Corel-Layer"/>
  <rect class="fil0" x="4955.38" y="5012.59" width="11726.33" height="8794.74"/>
  <g id="_2364181608032">
   <g>
    <g>
     <path class="fil1" d="M8674.38 8468.86c1415.41,0 2562.82,1147.41 2562.82,2562.82 0,626.05 -224.61,1199.57 -597.47,1644.66l-3930.7 0c-372.86,-445.09 -597.47,-1018.61 -597.47,-1644.66 0,-1415.41 1147.41,-2562.82 2562.82,-2562.82z"/>
     <circle class="fil1" cx="10911.19" cy="8801.49" r="3171.7"/>
     <path class="fil1" d="M12588.89 9303.18c1534.33,0 2778.15,1243.83 2778.15,2778.16 0,204.26 -22.25,403.29 -64.08,595l-5428.14 0c-41.84,-191.71 -64.09,-390.74 -64.09,-595 0,-1534.33 1243.83,-2778.16 2778.16,-2778.16z"/>
     <circle class="fil1" cx="14770.37" cy="9349.62" r="480.01"/>
     <circle class="fil1" cx="7053.39" cy="8226.08" r="364.75"/>
     <circle class="fil1" cx="7518.06" cy="7446.18" r="121.61"/>
     <circle class="fil1" cx="14368.19" cy="8216.75" r="155.42"/>
    </g>
    <ellipse class="fil2" cx="10943.9" cy="12809.12" rx="5080.22" ry="431.26"/>
    <g>
     <polygon class="fil3" points="9991.96,6693.9 9969.86,6682.15 9958.63,6716.7 9980.88,6722.42 "/>
     <rect class="fil3" transform="matrix(0.238691 -0.064908 0.0256541 0.488272 9748.23 6756.74)" width="1047.75" height="981.92" rx="63.5" ry="63.5"/>
     <ellipse class="fil4" cx="9328.21" cy="12586.66" rx="1242.14" ry="161.57"/>
     <ellipse class="fil4" cx="11722.4" cy="12876.13" rx="1535.99" ry="199.79"/>
     <ellipse class="fil4" cx="13931.85" cy="12809.12" rx="856.13" ry="111.36"/>
     <path class="fil5" d="M11515.09 12446.84l-61.49 80.5c-68.65,89.88 -156.04,163.74 -256.09,216.46 -33.98,17.9 -50.24,57.58 -38.6,94.18 51.71,162.65 304.68,149.18 434.93,115.85 102.47,-26.22 211.6,-84.27 317.07,-76.22 39.8,3.04 77.79,-17.14 97.55,-51.82l-30.49 -132.62c-9.05,-67.28 -10.31,-160.28 -22.07,-227.13 -7.11,-40.42 -36.78,-73.17 -76.3,-84.23 -39.52,-11.06 -81.88,1.54 -108.94,32.4l-255.57 32.63z"/>
     <path class="fil6" d="M11276.7 12695.85c-25.37,17.5 -51.8,33.52 -79.19,47.95 -33.97,17.9 -50.24,57.58 -38.6,94.18 51.71,162.65 304.68,149.18 434.93,115.85 102.47,-26.22 211.6,-84.27 317.06,-76.22 39.81,3.04 77.8,-17.14 97.56,-51.82l-30.49 -132.62c-2.73,-20.31 -4.75,-42.96 -6.57,-66.52 -46.91,6.08 -87.43,38.05 -103.53,83.94 -36.26,103.37 -147.01,160.33 -252.18,129.7 -28.55,-8.31 -59.09,-6.52 -86.46,5.09 -27.02,11.45 -58.34,0.89 -72.9,-24.58 -39.27,-68.67 -106.24,-112.75 -179.63,-124.95z"/>
     <path class="fil6" d="M10111.45 7635.51c-90.95,-103.78 -209.17,-247.66 -278.88,-421.52l-0.02 0c-16.14,12.61 -33.52,22.69 -51.37,31.79 2.47,244.43 149.82,359.16 330.27,389.73z"/>
     <path class="fil6" d="M11279.52 7497.48l206.06 984.61 324.42 942.98 95.65 -49.74 2.22 -655.79c0.9,-267.37 -72.14,-391.62 -183.93,-493.38l-121.66 -790.33 -322.76 61.65z"/>
     <ellipse class="fil6" cx="11506.01" cy="7650.83" rx="399.65" ry="420.77"/>
     <path class="fil5" d="M10567.3 12332.51l-78.25 70.4c-87.36,78.59 -192.05,138.56 -306.79,175.73 -38.97,12.62 -62.62,49.42 -56.14,87.35 28.8,168.55 299.67,193.06 443.38,179.58 113.06,-10.6 238.3,-51.68 349.03,-27.95 41.79,8.96 85.39,-5.31 111.95,-36.65l-11.08 -135.69c1.19,-67.87 14.79,-160.01 13.04,-227.87 -1.06,-41.03 -27.31,-77.85 -67.52,-94.7 -40.2,-16.84 -87.22,-10.72 -120.91,15.75l-276.71 -5.95z"/>
     <path class="fil7" d="M10204.86 12570.97c-7.49,2.65 -15.03,5.21 -22.6,7.67 -38.97,12.62 -62.62,49.42 -56.14,87.35 28.8,168.55 299.68,193.06 443.38,179.58 113.05,-10.6 238.3,-51.67 349.03,-27.95 41.8,8.96 85.39,-5.31 111.96,-36.65l-11.09 -135.69c0.21,-12.17 0.83,-25.12 1.68,-38.57 -70.01,2.41 -137.61,26.71 -193.22,69.63 -68.15,52.61 -157.14,69.96 -240.06,46.81 -62.51,-17.45 -128.86,-15.46 -190.22,5.7 -44.81,15.46 -93.74,-7.92 -109.86,-52.51 -15.68,-43.37 -44.87,-80.21 -82.86,-105.37z"/>
     <path class="fil6" d="M11321.23 6418.26l139.42 1.68 28.76 38.36c60.23,80.34 103.09,173.51 125.61,273.02 32.71,144.59 119.56,201.61 256.96,236.79 139.95,35.83 241.7,162.82 251.47,313.85 9.77,151.04 -74.68,291.33 -208.73,346.75 -134.05,55.41 -286.81,13.19 -377.58,-104.37l-416.66 -580.67 200.75 -525.41z"/>
     <circle class="fil8" cx="11473.41" cy="7629.7" r="399.65"/>
     <ellipse class="fil7" cx="11166.29" cy="6548.61" rx="404.89" ry="372.53"/>
     <ellipse class="fil9" transform="matrix(0.653258 0.0867974 -0.0867974 0.653258 11073.8 6614.7)" rx="1645.71" ry="526.52"/>
     <path class="fil5" d="M10777.32 6463.48l-8.57 -51.24c-92.02,119.69 -136.67,319.16 -112.59,438.62 15.73,78.04 -26.02,156.31 -99.59,186.72 -105.88,43.76 -180.22,140.89 -194.8,254.53 -14.59,113.63 32.82,226.38 124.22,295.46 91.4,69.08 212.8,83.92 318.15,38.87l384.43 -235.41 50.67 -451.59 -461.92 -475.96z"/>
     <path class="fil8" d="M10746.34 6886.97l15.06 76.45c13.04,66.19 1.2,134.86 -33.25,192.86 -58.93,99.22 -51.89,224.25 17.81,316.22 69.7,91.98 188.16,132.57 299.63,102.67l128.99 -477.48 -277.82 -139.98 -150.42 -70.74z"/>
     <rect class="fil9" transform="matrix(0.238691 -0.064908 0.0256541 0.488272 9723.29 6743.03)" width="1047.75" height="981.92" rx="63.5" ry="63.5"/>
     <path class="fil5" d="M11274.51 6464.03l139.42 1.61 28.75 36.49c60.24,76.45 103.1,165.1 125.61,259.79 32.72,137.59 119.56,191.84 256.96,225.31 139.96,34.1 241.7,154.93 251.47,298.65 9.78,143.72 -74.67,277.21 -208.72,329.94 -134.05,52.73 -286.82,12.55 -377.58,-99.31l-416.66 -552.52 200.75 -499.96z"/>
     <path class="fil10" d="M10895.64 7303.05l-177.39 58.93c-57.21,19 -120.27,74.8 -149.43,127.57 -29.16,52.76 -35.84,115.07 -18.52,172.83l341.83 -185.93 3.51 -173.4z"/>
     <path class="fil8" d="M11343.39 7057.82l50.53 15.76c78.4,24.44 158.72,42.25 240.1,53.24l12.1 4.35c101.82,36.59 173.39,128.65 183.75,236.36 10.36,107.7 -42.36,211.71 -135.35,267.03l-83.2 4.22 -372.08 -251.99 -110.07 -390.28 112.91 -104.71 101.31 166.02z"/>
     <path class="fil10" d="M10849.46 7370.19l-738.01 265.32c-118.92,-110.94 -286.03,-279.3 -346.29,-500.15l-55.66 8.74c-30.26,422.74 72.68,721.82 331.79,790.56l464.28 -120.94 343.89 -443.53z"/>
     <path class="fil11" d="M10111.45 7635.51c-90.65,-84.57 -209.29,-202.51 -287.28,-351.63l-0.01 0c-13.29,12.73 -27.92,23.3 -43.06,33.05 24.25,218.26 166.3,307.52 330.35,318.58z"/>
     <path class="fil7" d="M10449.36 7646.64c-53.06,40.85 -84.15,104.03 -84.15,170.99 0,66.96 31.09,130.14 84.15,170.99l-86 170.99 86 61.75c277.19,199.01 648.37,206.57 933.43,19l211.98 -560.47c124.09,-328.07 -7.19,-617.43 -258.13,-530.18l-441 153.34 -446.28 343.59z"/>
     <path class="fil9" d="M10386.52 7724.15c-13.85,28.8 -21.31,60.68 -21.31,93.48 0,66.96 31.09,130.14 84.15,170.99l-86 170.99 86 61.75c277.19,199.01 648.37,206.57 933.43,19l78.21 -206.77 -165.88 -775.92 -134.01 123.5c-73.62,67.86 -144.02,139.12 -210.98,213.56 -80.27,89.26 -200.76,131.03 -319.05,110.64 -47.83,-8.25 -97.01,-2.9 -141.95,15.44 -33.76,13.77 -70.06,14.2 -102.61,3.34z"/>
     <path class="fil11" d="M11310.29 7158.88l-8.69 3.02c-66.86,-85.61 -68.79,-164.08 -39.9,-269l26.21 -95.2 -235.43 181.4c4.07,80.93 -3.87,161.92 -23.47,240.31 -6.56,26.24 -24.4,45.76 -49.96,54.65l-3.97 1.38 -111.15 101.9c-36.38,33.36 -47.29,66.1 -15.77,57.58 217.68,-58.85 296.85,-206.46 462.13,-276.04z"/>
     <path class="fil10" d="M11119.1 6927.77l-66.62 51.33c4.07,80.93 -3.87,161.92 -23.47,240.31 -2.95,11.81 -8.19,22.25 -15.38,30.99 7.65,-3.21 15.21,-6.7 22.66,-10.47 85.04,-43.08 148.77,-119.07 176.37,-210.31l31.52 -104.21 -125.08 2.36z"/>
     <path class="fil10" d="M10363.36 9642.88l310.13 1356.95 -9.47 1527.5 222.79 0 140.69 -408.93c152.19,-442.4 146.75,-885.68 -15.17,-1234.11l50.18 -1365.55 -699.15 124.14z"/>
     <path class="fil11" d="M10800.76 9642.88l591.72 1356.95 266.47 1527.5 200.81 0 82.62 -408.93c89.37,-442.4 50.38,-885.68 -193.25,-1234.11l-191.74 -1365.55 -756.63 124.14z"/>
     <path class="fil10" d="M11968.35 11450.35c-12.67,-85.13 -32.29,-168.25 -59.48,-248.57l-382.95 99.88 47.88 323.48 7.12 -61.04c10.86,-93.03 79.58,-168.9 171.09,-188.88 81.3,-17.76 164.65,12.11 216.34,75.13z"/>
     <path class="fil10" d="M11656.75 10226.4l-87.69 -624.54 -227.88 -47.65 -199.06 32.66 -139.36 323.43 94.1 0c232.64,0 443.45,123.03 559.89,316.1z"/>
     <path class="fil9" d="M10363.36 8788.5l-55.34 1031.46 55.34 23.73c215.65,92.49 460.54,88.5 673.07,-10.95l-673.07 -1044.24z"/>
     <path class="fil7" d="M11084.48 8576.73l45.95 131.44 150.96 102.24c258.38,174.98 392.76,481.06 354.27,806.91 -182.29,244.2 -529.59,365.45 -800.89,321.31l-471.41 -1150.13 37.84 -167.96 683.28 -43.81z"/>
     <polygon class="fil11" points="10401.2,8620.54 10512.93,8131.46 11295.12,8152.05 11084.48,8576.73 "/>
     <path class="fil10" d="M10489.13 8235.66l23.8 -104.2c256.73,-70.35 517.65,-60.02 782.19,20.59l-161.22 325.05c-165.69,-177.28 -404.71,-266.16 -644.77,-241.44z"/>
     <ellipse class="fil11" cx="11380.79" cy="7434.91" rx="188.56" ry="227.46"/>
     <path class="fil11" d="M11199.46 7497.48l246.96 984.61 337.13 942.98 122.1 -49.05 -27.08 -656.48c-11.03,-267.37 -88.41,-391.62 -204.42,-493.38l-154.49 -790.33 -320.2 61.65z"/>
     <path class="fil10" d="M11285.85 7841.92c52.28,145.79 87.02,411.44 248.69,415.02 -120.18,145.8 27.47,465.43 71.5,639.15l-159.62 -414 -160.57 -640.17z"/>
     <path class="fil11" d="M11035.22 6394.26c395.4,-15.46 317.94,161.31 327.25,375.27 9.31,213.96 -357.31,402.06 -440.11,405.3 -82.81,3.24 -206.04,-289.39 -180.68,-381.01 9.87,-35.7 -16.71,-100.72 -13.21,-169.14 5.48,-107.16 65.45,-220.98 306.75,-230.42z"/>
     <g>
      <path class="fil10" d="M10884 6719.03l-3.81 23.31c-2.55,15.59 2.75,31.04 14.73,42.89 11.97,11.84 29.62,19.09 49,20.14l71.95 -19.88 10.32 -9.46c5.64,-5.16 13.6,-8.29 21.95,-8.63 8.34,-0.34 16.3,2.14 21.92,6.85l9.88 9.59 -25.56 -80.17 -11.04 -1.32 -47.72 -15.86 -81.35 4.63 -30.27 27.91z"/>
      <path class="fil12" d="M10879.87 6685.58l4.13 33.45 35.67 -12.73c39.84,-14.21 84.28,-15.38 123.49,-3.24l-17.62 -13.86c-21.36,-16.8 -52.53,-23.22 -82.62,-17.02 -17.03,3.5 -33.99,7.19 -50.92,11.04l-3.78 21.8 -8.35 -19.44z"/>
      <path class="fil12" d="M10969.97 6720.26c-39.37,2.46 -74.12,23.49 -77.61,46.97 -3.5,23.49 25.59,40.53 64.96,38.06 39.38,-2.46 74.13,-23.49 77.62,-46.97 3.5,-23.48 -25.59,-40.52 -64.97,-38.06z"/>
      <path class="fil6" d="M10969.76 6737.84c-32.8,2.06 -61.75,19.58 -64.66,39.15 -2.91,19.56 21.32,33.75 54.12,31.7 32.81,-2.05 61.77,-19.58 64.68,-39.14 2.91,-19.56 -21.33,-33.76 -54.14,-31.71z"/>
      <path class="fil12" d="M10949.09 6729.63c-20.13,-1.32 -37.15,13.52 -38.03,33.14 -0.87,19.63 14.73,36.61 34.86,37.94 20.13,1.33 37.16,-13.51 38.03,-33.14 0.87,-19.62 -14.73,-36.61 -34.86,-37.94z"/>
      <path class="fil6" d="M10923.39 6757.66c-7.02,-0.47 -12.94,4.7 -13.25,11.54 -0.3,6.83 5.13,12.75 12.14,13.21 7.02,0.46 12.94,-4.71 13.25,-11.54 0.3,-6.84 -5.13,-12.75 -12.14,-13.21z"/>
     </g>
     <path class="fil10" d="M10917.96 7174.7c-82.7,-6.86 -201.19,-290.87 -176.28,-380.88 9.87,-35.7 -16.71,-100.72 -13.21,-169.14 2.74,-53.51 19.06,-108.68 64.76,-151.68l33.17 -9.52c-19.98,111.06 -51.42,240.49 -34.63,273 11.84,26.15 37.9,66.03 5.6,131.94 -4.8,9.8 -4.11,21.41 1.83,30.56 5.93,9.16 16.24,14.53 27.15,14.14 12.88,-0.45 28.67,36.51 26.11,51.25 -5.11,29.49 -1.99,58.84 21.97,89.3 -10.14,49.25 -9.02,94.87 43.53,121.03z"/>
     <path class="fil5" d="M10697.37 6574.06c12.73,-60.98 37.49,-114.31 71.38,-161.82 93.13,-65.32 490.69,-44.97 645.18,53.4l46.15 425.64 -116.69 166.55 -54.51 -20.24c-155.05,-57.55 -263.29,-199 -278.3,-363.7 -9.36,-102.62 -83.7,-187.55 -184.18,-210.41l-25.27 24.53c-41.2,39.99 -77.25,96.48 -76.13,153.88l-27.63 -67.83z"/>
     <path class="fil8" d="M10768.75 6412.24c93.13,-65.32 490.7,-44.97 645.17,53.39l28.76 36.5c60.24,76.45 103.1,165.1 125.61,259.79 8.17,34.35 19.71,63.49 34.56,88.43 -163.56,-270.77 -457.51,-438.11 -776.45,-438.11l-57.65 0z"/>
     <path class="fil10" d="M9710.59 7294.09l-5.51 -234.28 191.01 -18.05c29.36,140.09 -43.68,233.62 -121.86,279.32l-63.64 -26.99z"/>
     <path class="fil10" d="M9921.38 6897.35c10.77,4.38 31.84,62.71 -4.4,114.08 -36.23,51.37 -11.7,96.06 -61.9,90.67 -50.21,-5.4 4.61,-50 22.92,-106.54 18.32,-56.54 32.62,-102.59 43.38,-98.21z"/>
     <path class="fil10" d="M9763.28 6855.39c-13.24,2.5 -77.48,74.32 -65.8,160.34 3.05,22.48 6.89,50.09 8.55,84.23 1.73,35.97 36.69,51.42 56.21,51.38 32.05,-0.08 -38.08,-147.97 -9.94,-194.86 28.14,-46.89 24.22,-103.6 10.98,-101.09z"/>
     <path class="fil10" d="M9868.15 6822.37c-17.48,0 -96.23,62.71 -108.6,140.08 -12.37,77.37 -30.28,140.09 20.77,140.09 51.04,0 13.32,-103.61 42.55,-140.09 29.22,-36.47 62.77,-140.08 45.28,-140.08z"/>
     <path class="fil10" d="M9888.37 6851.7c-14.98,-1.92 -54.93,47.52 -73.31,112.48 -18.39,64.95 -34.92,122.68 6.74,122.74 41.67,0.05 10.32,-66.13 47.53,-115.79 37.2,-49.66 34.03,-117.52 19.04,-119.43z"/>
     <path class="fil13" d="M10957.98 6997.24c-19.03,-0.88 -37.95,-25.21 -81.3,-27.87 -10.13,-0.62 -19.5,3.48 -25.4,11.13l-5.7 -2c-8.41,-2.96 -17.28,-1.01 -22.91,5.02 -5.62,6.02 -7.03,15.08 -3.62,23.4l7.48 3.51c1.5,20.06 8.52,50.36 41.79,54.98 44.01,6.13 75.18,-18.39 78.13,-59.65 6.68,-1.64 11.21,-4.42 11.53,-8.52z"/>
     <path class="fil7" d="M10930.64 7008.7c-52.12,13.53 -81.14,12.82 -86.09,0.56 9.66,-4.79 35.35,-5.7 86.09,-0.56z"/>
     <path class="fil14" d="M10741.73 6793.61l35.98 30.4c12.64,0.15 23.78,6.41 30.64,15.96 8.33,-30.03 4.09,-53.64 -2.76,-72.51 -1.68,-4.4 -3.51,-8.76 -5.51,-13.05l-6.56 -14.16 -0.6 -1.28 -1.15 -2.49 -9.14 -6.32 -45.65 -11.49c5.16,30.37 9.76,56.53 4.75,74.94z"/>
     <path class="fil5" d="M10791.77 6736.48l-15.57 -30.07 3.18 13.56 -9.02 -17.05c-31.31,-18.38 -47.78,-18.89 -54.37,-5.5l7.3 35.11c4.62,-18.69 14.07,-17.48 68.48,3.95z"/>
     <path class="fil5" d="M10762.62 6744.67c20.18,2.25 36.55,22.27 36.55,44.71 0,22.45 -16.37,38.82 -36.55,36.57 -20.18,-2.25 -36.54,-22.27 -36.54,-44.72 0,-22.44 16.36,-38.81 36.54,-36.56z"/>
     <path class="fil6" d="M10769.64 6759.7c16.81,1.88 30.45,18.55 30.45,37.25 0,18.71 -13.64,32.34 -30.45,30.47 -16.82,-1.88 -30.45,-18.56 -30.45,-37.25 0,-18.71 13.63,-32.35 30.45,-30.47z"/>
     <path class="fil5" d="M10781.81 6759.89c-14.51,-6.94 -30.69,-3.83 -40.03,9.15 -0.68,0.95 -1.31,1.93 -1.89,2.94 -1.73,10.97 0.71,23.2 7.23,32.02 9.86,13.36 25.3,13.84 34.48,1.07 8.71,-12.11 8.66,-31.78 0.21,-45.18z"/>
     <path class="fil6" d="M10744.89 6776.5c3.02,-0.24 5.46,3.6 5.46,8.58 0,4.98 -2.44,9.21 -5.46,9.46 -3.01,0.24 -5.45,-3.6 -5.45,-8.58 0,-4.98 2.44,-9.22 5.45,-9.46z"/>
     <path class="fil10" d="M10835.45 6895.3l16.04 0c5.22,0 9.74,1.82 10.84,4.37 1.1,2.55 -1.52,5.14 -6.27,6.22 -4.76,1.07 -10.37,0.34 -13.48,-1.76 -3.83,-2.59 -6.29,-8.83 -7.13,-8.83z"/>
     <ellipse class="fil10" transform="matrix(0.384457 -0 -0.0655433 0.384457 10502.1 8526.55)" rx="67.47" ry="130.53"/>
     <rect class="fil5" transform="matrix(0.3791 -0.0981184 0.0319988 0.586084 9730.32 6761.21)" width="294.26" height="90.4" rx="17.46" ry="17.46"/>
     <path class="fil7" d="M11238.75 6915.2c105.44,76.96 232.24,113.06 373.94,136.21 167.21,27.31 297.3,82.57 281.43,332.79 65.54,-199.53 -55.66,-326.38 -271.77,-356.78 -99.79,-14.04 -259.32,-35.26 -383.6,-112.22z"/>
     <path class="fil7" d="M11975.5 7207.45c35.31,141.97 12.24,263.34 -116.99,370.04l36.52 -23.47c116.21,-74.7 151.88,-228.31 80.47,-346.57z"/>
     <path class="fil7" d="M11238.75 6696.77c61.66,153.58 165.51,233.51 332.43,254.3l-39.89 -16.95c-117.85,-50.1 -232.14,-125.39 -292.54,-237.35z"/>
     <path class="fil9" d="M11295.12 8997.92c-307.78,-16.56 -431.6,-78.47 -422.92,-173.05 81.37,55.48 223.43,113.21 422.92,173.05z"/>
     <rect class="fil5" transform="matrix(0.239564 0.0226526 0.0229925 0.307325 10325.5 8502.99)" width="881.95" height="858.96" rx="202.85" ry="202.85"/>
     <path class="fil5" d="M10452.64 8565.92c268.11,10.81 583.79,-5.32 665.21,-56.47l22.07 -44.48 29.86 37.37 6.78 152.96c-93.11,72.1 -466.02,86.26 -720.53,75.91l-3.39 -165.29z"/>
     <rect class="fil6" transform="matrix(0.103702 0.00812319 0.00995292 0.17975 10356.8 8558.98)" width="881.95" height="858.96" rx="202.85" ry="202.85"/>
     <path class="fil10" d="M11384.03 10980.46l162.83 86.12c89.3,459.19 173.13,800.41 80.76,1281.18l-243.59 -1367.3z"/>
     <ellipse class="fil5" cx="11684.95" cy="12527.34" rx="182.92" ry="216.46"/>
     <path class="fil15" d="M11667.11 12547.37c6.16,5 7.09,14.06 2.09,20.21 -5.01,6.16 -14.06,7.09 -20.22,2.08 -33.83,-27.57 -67.56,-44.82 -97.81,-53.61 -33.46,-9.73 -62.1,-9.09 -81.1,-0.72 -7.28,3.21 -15.78,-0.1 -18.98,-7.37 -3.2,-7.28 0.1,-15.78 7.38,-18.99 24.76,-10.91 60.45,-12.22 100.69,-0.52 33.69,9.79 70.97,28.76 107.95,58.92z"/>
     <path class="fil15" d="M11613.95 12625.11c5.79,5.41 6.09,14.49 0.68,20.27 -5.41,5.79 -14.49,6.09 -20.28,0.68 -32.86,-30.74 -63.9,-48.64 -93.6,-57.86 -29.4,-9.12 -57.77,-9.77 -85.41,-6.01 -7.87,1.05 -15.11,-4.47 -16.17,-12.34 -1.05,-7.86 4.47,-15.1 12.34,-16.16 31.41,-4.27 63.82,-3.48 97.69,7.03 33.59,10.43 68.39,30.37 104.75,64.39z"/>
     <path class="fil15" d="M11538.99 12690.35c5.23,5.97 4.62,15.05 -1.35,20.28 -5.97,5.22 -15.05,4.62 -20.28,-1.35 -22.85,-26.14 -49.17,-45.53 -75.82,-57.91 -27.7,-12.86 -55.6,-18.09 -80.07,-15.39 -7.9,0.87 -15.01,-4.83 -15.88,-12.73 -0.87,-7.9 4.83,-15.01 12.73,-15.88 29.61,-3.27 62.81,2.8 95.27,17.88 30.12,13.98 59.78,35.79 85.4,65.1z"/>
     <ellipse class="fil7" cx="11528.5" cy="12702.6" rx="32.66" ry="26.25"/>
     <ellipse class="fil7" cx="11601.35" cy="12643.22" rx="32.66" ry="26.25"/>
     <path class="fil15" d="M11549.4 10377.72c-1.32,10.49 -10.91,17.92 -21.4,16.59 -10.48,-1.32 -17.92,-10.91 -16.59,-21.4l106.54 -836.61c1.32,-10.49 10.91,-17.92 21.4,-16.59 10.48,1.32 17.92,10.91 16.59,21.4l-106.54 836.61z"/>
     <path class="fil15" d="M11779.25 9520.99c-1.24,-10.53 6.29,-20.08 16.82,-21.32 10.53,-1.25 20.08,6.29 21.33,16.82l93.74 780.28c1.24,10.53 -6.29,20.08 -16.82,21.32 -10.53,1.25 -20.09,-6.29 -21.33,-16.82l-93.74 -780.28z"/>
     <ellipse class="fil7" cx="11658.05" cy="12571.19" rx="32.66" ry="26.25"/>
     <g>
      <polygon class="fil9" points="12179.64,10113.54 11294.54,10078.28 11002.76,11202.68 11413,11341.43 "/>
      <polygon class="fil7" points="11404.33,10113.54 12271.85,10010.51 12581.21,11202.68 11413.01,11341.43 "/>
      <polygon class="fil9" points="11294.54,10078.28 11404.33,10113.54 12271.85,10010.51 12083.69,9983.12 "/>
      <polygon class="fil16" points="11002.76,11202.68 11411.81,11172.13 11404.33,10113.54 11294.54,10078.28 "/>
     </g>
     <polygon class="fil9" points="9499.13,11351 8484.35,11259.09 8149.83,12531.25 8620.17,12714.18 "/>
     <polygon class="fil7" points="8610.23,11305.9 9604.85,11238.24 9959.53,12623.07 8620.18,12714.19 "/>
     <polygon class="fil9" points="8484.35,11259.09 8610.23,11305.9 9604.85,11238.24 9389.12,11195.9 "/>
     <polygon class="fil16" points="8149.83,12531.25 8618.8,12520.01 8610.23,11305.9 8484.35,11259.09 "/>
     <polygon class="fil9" points="13418.06,11862.5 14172.63,11794.15 14421.37,12740.1 14071.63,12876.13 "/>
     <polygon class="fil7" points="14079.03,11828.96 13339.45,11778.65 13075.72,12808.38 14071.63,12876.13 "/>
     <polygon class="fil9" points="14172.63,11794.15 14079.03,11828.96 13339.45,11778.65 13499.86,11747.17 "/>
     <path class="fil15" d="M11826.5 9569.82c-2.28,-10.32 4.24,-20.54 14.57,-22.82 10.32,-2.28 20.54,4.24 22.82,14.56l170.03 767.28c2.28,10.33 -4.25,20.55 -14.57,22.83 -10.32,2.28 -20.54,-4.25 -22.82,-14.57l-170.03 -767.28z"/>
     <path class="fil10" d="M11906.48 9577.17c-19.87,66.52 -68.36,64.7 -103.24,95.36 -21.81,13.76 -48.72,16.76 -73.02,8.13l-73.47 0c-20.2,0 -39.3,-9.21 -51.88,-25.02 -16.1,-20.24 -33.56,-39.36 -52.26,-57.22 -7.39,-7.07 -9.05,-18.25 -4.03,-27.16 5.02,-8.91 15.46,-13.28 25.33,-10.61l32.4 -14.81c17.87,-8.16 38.29,-8.7 56.55,-1.48l24.85 -7.86c33.01,-10.44 69.06,-3.81 96.2,17.71l122.57 22.96z"/>
     <polygon class="fil16" points="14421.38,12740.1 14072.65,12731.75 14079.03,11828.96 14172.63,11794.15 "/>
     <path class="fil11" d="M11750.76 9260.99l-77.03 64.52c-36.25,29.57 -60.11,76.51 -64.93,127.69 -4.55,48.33 -22.4,94.24 -50.73,130.49 -6.41,8.21 -7.34,20.39 -2.21,29.21 5.12,8.8 14.89,11.82 23.42,7.23 12.82,-6.92 25.41,-14.51 37.73,-22.74 12.5,-8.36 20.78,-23.68 21.84,-40.45 1.64,-25.76 16.71,-48.25 37.58,-56.07l10.16 66.41c3.47,22.71 22.67,39.2 45.64,39.19l136.79 0.01c10.67,0 19.84,-3.83 27.35,-11.4 7.5,-7.58 11.24,-16.79 11.13,-27.46l-1.85 -191.59 -154.89 -115.04z"/>
     <path class="fil15" d="M11674.27 10370.83c-0.12,10.58 -8.8,19.05 -19.37,18.92 -10.57,-0.12 -19.04,-8.8 -18.92,-19.37l10.74 -827.19c0.12,-10.58 8.8,-19.05 19.37,-18.92 10.58,0.12 19.05,8.8 18.92,19.37l-10.74 827.19z"/>
     <g>
      <path class="fil16" d="M9389.33 11433.71c-1.74,-10.45 5.32,-20.33 15.77,-22.07 10.44,-1.74 20.33,5.32 22.07,15.77l64.07 383.59c1.49,8.94 2.54,17.81 3.13,26.56 4.36,63.46 -14.14,122.24 -48.96,167.76 -34.97,45.7 -86.31,77.97 -147.47,88.19 -7.92,1.32 -15.99,2.28 -24.19,2.83 -71.27,4.89 -140.92,-20.38 -195.69,-65.02 -54.63,-44.52 -94.59,-108.43 -106.71,-180.97l-64.07 -383.59c-1.74,-10.45 5.32,-20.34 15.77,-22.08 10.45,-1.74 20.34,5.32 22.07,15.77l64.08 383.59c10.52,63.05 45.38,118.7 93.04,157.54 47.52,38.73 107.67,60.67 168.96,56.47 6.96,-0.47 13.79,-1.28 20.44,-2.39 51.19,-8.55 94.11,-35.48 123.28,-73.61 29.31,-38.31 44.86,-88.03 41.16,-141.93 -0.51,-7.54 -1.41,-15.16 -2.69,-22.81l-64.06 -383.6z"/>
      <ellipse class="fil16" cx="8918.24" cy="11466.37" rx="56.2" ry="55"/>
      <ellipse class="fil16" cx="9393.28" cy="11429.75" rx="56.2" ry="55"/>
     </g>
     <g>
      <path class="fil16" d="M13507.78 11963.54c1.2,-7.22 -3.68,-14.05 -10.9,-15.25 -7.21,-1.2 -14.05,3.67 -15.25,10.89l-44.26 265.01c-1.03,6.17 -1.75,12.3 -2.16,18.35 -3.01,43.84 9.77,84.45 33.82,115.89 24.16,31.58 59.63,53.87 101.88,60.93 5.47,0.91 11.05,1.57 16.71,1.96 49.24,3.37 97.36,-14.09 135.2,-44.93 37.74,-30.75 65.35,-74.91 73.72,-125.02l44.26 -265c1.2,-7.22 -3.67,-14.05 -10.89,-15.26 -7.22,-1.2 -14.05,3.68 -15.25,10.9l-44.27 265c-7.27,43.56 -31.35,82 -64.28,108.84 -32.83,26.76 -74.38,41.91 -116.72,39.01 -4.81,-0.33 -9.53,-0.88 -14.12,-1.65 -35.37,-5.91 -65.02,-24.51 -85.17,-50.85 -20.25,-26.47 -30.99,-60.82 -28.44,-98.06 0.36,-5.21 0.98,-10.47 1.86,-15.76l44.26 -265z"/>
      <ellipse class="fil16" cx="13833.23" cy="11986.1" rx="38.83" ry="37.99"/>
      <ellipse class="fil16" cx="13505.05" cy="11960.8" rx="38.83" ry="37.99"/>
     </g>
     <ellipse class="fil5" transform="matrix(0.204889 -0 -0.0846574 0.345677 10624.4 12384.1)" rx="529.17" ry="626.18"/>
     <path class="fil5" d="M10743.38 12323.23l1.73 28.14c0,44.13 28.96,83.04 71.24,95.7 42.28,12.66 87.85,-3.93 112.11,-40.8l45.34 64.62 -88.5 163.27 -3.05 0.51 -312.5 -53.09 1.23 -3.88 45.77 -116.98 126.63 -137.49z"/>
     <path class="fil15" d="M10579.77 12457.59c5.69,5.53 5.82,14.64 0.28,20.33 -5.53,5.69 -14.64,5.81 -20.33,0.28 -18.67,-18.14 -46.24,-29.95 -70.5,-35.38 -11.37,-2.54 -21.84,-3.64 -30.16,-3.29 -4.78,0.2 -8.19,0.62 -9.71,1.25 -2.68,6.22 -9.49,9.85 -16.35,8.32 -7.74,-1.74 -12.6,-9.44 -10.87,-17.18 0.93,-4.13 2.94,-7.72 5.89,-10.76 6.17,-6.35 16.8,-9.8 29.92,-10.35 10.63,-0.44 23.66,0.88 37.47,3.97 28.68,6.41 61.57,20.66 84.36,42.81z"/>
     <path class="fil15" d="M10488.49 12497.76c5.94,5.26 6.49,14.34 1.24,20.28 -5.26,5.94 -14.34,6.49 -20.28,1.24 -16.61,-14.75 -47.81,-25.59 -71.42,-29.19 -7.21,-1.1 -13.39,-1.49 -17.83,-1.07 -1.87,4.11 -5.64,7.29 -10.42,8.21 -7.8,1.49 -15.35,-3.63 -16.84,-11.43 -0.89,-4.58 -0.25,-8.82 1.71,-12.69l0 -0.05c3.79,-7.47 11.8,-11.55 22.5,-12.64 6.99,-0.71 15.71,-0.27 25.16,1.17 27.84,4.25 65.28,17.61 86.18,36.17z"/>
     <path class="fil15" d="M10381.96 12532.08c6,5.19 6.65,14.27 1.46,20.27 -5.19,6 -14.27,6.65 -20.27,1.46 -3.23,-2.8 -7.55,-6.25 -12.57,-9.81 -9.34,-6.61 -20.87,-13.43 -31.47,-16.43 -7.37,-2.09 -13.96,-2.21 -17.45,1.83l-0.75 0.97c-4.57,6.5 -13.54,8.07 -20.05,3.49 -6.5,-4.57 -8.06,-13.54 -3.49,-20.05 0.74,-1.05 1.6,-2.13 2.55,-3.22 12.41,-14.31 29.47,-15.69 46.96,-10.74 14.26,4.04 28.84,12.55 40.37,20.72 5.77,4.09 10.85,8.16 14.71,11.51z"/>
     <ellipse class="fil15" cx="10380.18" cy="12550.93" rx="27.63" ry="23.6"/>
     <ellipse class="fil15" cx="10478.34" cy="12515.08" rx="27.63" ry="23.6"/>
     <ellipse class="fil15" cx="10566.73" cy="12472.11" rx="27.63" ry="23.6"/>
    </g>
    <path class="fil17" d="M7821.16 11075.22c226.95,0 410.93,183.98 410.93,410.93 0,226.96 -183.98,410.93 -410.93,410.93 -226.96,0 -410.93,-183.97 -410.93,-410.93 0,-226.95 183.97,-410.93 410.93,-410.93zm4749.38 -3177.75c164.62,0 298.06,133.44 298.06,298.06 0,164.62 -133.44,298.07 -298.06,298.07 -164.62,0 -298.07,-133.45 -298.07,-298.07 0,-164.62 133.45,-298.06 298.07,-298.06zm-204.48 1676.35c51.68,0 93.58,41.9 93.58,93.58 0,51.69 -41.9,93.59 -93.58,93.59 -51.69,0 -93.59,-41.9 -93.59,-93.59 0,-51.68 41.9,-93.58 93.59,-93.58zm1015.17 1118.93c149.44,0 270.58,121.14 270.58,270.58 0,149.43 -121.14,270.57 -270.58,270.57 -149.43,0 -270.58,-121.14 -270.58,-270.57 0,-149.44 121.15,-270.58 270.58,-270.58zm-4490 -1118.93c139.35,0 252.32,112.96 252.32,252.32 0,139.35 -112.97,252.31 -252.32,252.31 -139.35,0 -252.31,-112.96 -252.31,-252.31 0,-139.36 112.96,-252.32 252.31,-252.32zm-476 -1769.94c51.68,0 93.58,41.9 93.58,93.59 0,51.68 -41.9,93.58 -93.58,93.58 -51.69,0 -93.59,-41.9 -93.59,-93.58 0,-51.69 41.9,-93.59 93.59,-93.59zm-707.98 2274.57c24.72,0 44.76,20.04 44.76,44.76 0,24.72 -20.04,44.76 -44.76,44.76 -24.72,0 -44.76,-20.04 -44.76,-44.76 0,-24.72 20.04,-44.76 44.76,-44.76z"/>
   </g>
   <path class="fil15" d="M11902.67 9303.93c13.45,12.43 23.12,25.68 28.26,38.59 5.75,14.43 5.97,28.51 -0.16,40.91 -1.87,3.76 -4.3,7.33 -7.26,10.59 -14.93,16.41 -42.15,24 -74.08,22.98 -30.43,-0.97 -65.66,-9.68 -98.42,-25.88 -19.33,-9.56 -35.77,-20.72 -48.69,-32.44 -13.95,-12.69 -23.94,-26.25 -29.19,-39.45 -5.75,-14.43 -5.97,-28.52 0.16,-40.9 1.87,-3.76 4.3,-7.33 7.26,-10.59 9.13,-10.05 22.88,-16.79 39.5,-20.27l6.76 18.92c-13.72,2.44 -24.74,7.35 -31.5,14.79 -1.74,1.92 -3.13,3.93 -4.12,5.94 -3.5,7.1 -3.18,15.64 0.46,24.77 4.11,10.34 12.37,21.35 24.11,32.03 11.59,10.52 26.48,20.6 44.07,29.3 30.22,14.94 62.51,22.98 90.22,23.86 26.23,0.83 47.89,-4.61 58.7,-16.5 1.74,-1.91 3.13,-3.92 4.12,-5.94 3.49,-7.1 3.18,-15.65 -0.46,-24.78 -1.93,-4.85 -4.77,-9.84 -8.46,-14.88l-1.28 -31.05z"/>
  </g>
 </g>
</svg>
