<?xml version="1.0" encoding="UTF-8"?>
<!DOCTYPE svg PUBLIC "-//W3C//DTD SVG 1.1//EN" "http://www.w3.org/Graphics/SVG/1.1/DTD/svg11.dtd">
<!-- Creator: CorelDRAW 2017 -->
<svg xmlns="http://www.w3.org/2000/svg" xml:space="preserve" width="210mm" height="297mm" version="1.1" style="shape-rendering:geometricPrecision; text-rendering:geometricPrecision; image-rendering:optimizeQuality; fill-rule:evenodd; clip-rule:evenodd"
viewBox="0 0 21000 29700"
 xmlns:xlink="http://www.w3.org/1999/xlink">
 <defs>
  <style type="text/css">
   <![CDATA[
    .fil0 {fill:none}
    .fil11 {fill:#313033}
    .fil17 {fill:#332D2A}
    .fil14 {fill:#4D4C50}
    .fil4 {fill:#690929}
    .fil13 {fill:#6E0D2E}
    .fil10 {fill:#851339}
    .fil6 {fill:#B85173}
    .fil5 {fill:#D67897}
    .fil18 {fill:#D92B2B}
    .fil9 {fill:#DE83A1}
    .fil8 {fill:#E32B2B}
    .fil2 {fill:#EDA8BF}
    .fil16 {fill:#F25757}
    .fil1 {fill:#FAD7E3}
    .fil3 {fill:#FF6666}
    .fil15 {fill:#FFE8F0}
    .fil12 {fill:white}
    .fil7 {fill:white}
   ]]>
  </style>
 </defs>
 <g id="Слой_x0020_1">
  <metadata id="CorelCorpID_0Corel-Layer"/>
  <rect class="fil0" x="3326.13" y="3448.32" width="13925.96" height="10444.47"/>
  <path class="fil1" d="M10289.1 5541.53c2742.97,0 4966.59,2223.62 4966.59,4966.58 0,990.77 -290.23,1913.69 -790.13,2688.62l-8352.91 0c-499.9,-774.93 -790.13,-1697.85 -790.13,-2688.62 0,-2742.96 2223.61,-4966.58 4966.58,-4966.58z"/>
  <g id="_2983107816960">
   <path class="fil2" d="M11789.62 10184.13c154.54,-281.2 309.72,-254.91 176.46,44.42 -279.74,628.34 917.13,1282.29 1538.82,420.2 -161.29,-42.05 -312.39,-91.81 -453.27,-148.12 -229.33,-91.66 -430.43,-200.45 -603.52,-321.4 -57.61,-39.98 -71.89,-119.1 -31.91,-176.7 39.98,-57.61 119.1,-71.89 176.7,-31.91 158.4,110.68 342.79,210.38 553.43,294.57 49.07,19.62 99.63,38.4 151.69,56.3 207.62,71.38 433.8,-28.02 521.61,-229.25 24.38,-55.87 46.13,-110.89 65.39,-165.12 -172.49,-19.72 -336.08,-49.25 -490.5,-87.32 -246.23,-60.7 -468.52,-143.03 -665.97,-241.83 -62.76,-31.16 -88.38,-107.32 -57.22,-170.08 31.16,-62.76 107.31,-88.38 170.07,-57.22 182.07,91.11 387.16,167.05 614.45,223.08 33.44,8.25 67.39,16.06 101.83,23.44 112.97,24.19 220.04,-0.91 310.49,-72.78 90.45,-71.88 139.09,-170.5 141.05,-286.02 1.5,-88.04 -2.75,-174.71 -11.79,-260.45 -135.48,25.92 -265.67,42.11 -390.26,49.42 -221.29,12.98 -427.36,-1.85 -616.26,-39.81 -68.68,-13.95 -113.05,-80.94 -99.1,-149.62 13.95,-68.68 80.94,-113.05 149.62,-99.1 166.29,33.42 350.4,46.31 551.06,34.54 26.82,-1.57 53.91,-3.58 81.24,-6.04 76.06,-6.83 138.73,-43.73 181.62,-106.93 42.88,-63.18 54.03,-135.06 32.29,-208.27 -14.05,-47.31 -29.02,-94.65 -44.72,-142.08 -10.62,-32.05 -20.99,-63.18 -31.13,-93.42l-0.99 0.44c-154.16,68.36 -309.78,107.2 -463.34,120.36 -69.81,6 -131.27,-45.72 -137.28,-115.53 -6.01,-69.8 45.72,-131.26 115.53,-137.27 85.36,-7.32 172.09,-24.61 259.34,-52.9 40.42,-13.1 70.47,-38.95 89.49,-76.94 19.02,-37.98 21.7,-77.53 7.98,-117.74 -120.71,-353.78 -170.95,-520.01 -117.84,-615.93 -113.6,87.81 -208.06,127.35 -655.42,173.33 -47.28,4.85 -86,28.37 -112.09,68.1 -26.1,39.72 -32.31,84.59 -17.99,129.91 21.31,67.46 48,131.05 79.45,190.67 32.72,61.92 9.04,138.64 -52.89,171.36 -61.92,32.72 -138.64,9.04 -171.36,-52.88 -71.78,-136.12 -123.14,-288.09 -148.95,-455.07 -0.72,-4.67 -1.42,-9.35 -2.11,-14.05 -98.47,7.99 -195.95,20.63 -293.1,38.58 -91.02,16.82 -161.65,72.63 -199.06,157.29 -37.41,84.65 -31.13,174.45 17.71,253.07 98.12,157.97 206.15,292.27 320.59,403.89 50.25,49.01 51.23,129.48 2.21,179.73 -49.01,50.24 -129.49,51.23 -179.73,2.21 -137.37,-133.98 -265.76,-295.69 -380.27,-486.26 -60.9,-101.34 -117.98,-211.1 -170.52,-329.46 -172.07,76.56 -332.74,172.55 -474.87,288.25 -68.22,55.53 -103.56,132.02 -101.63,219.96 1.93,87.94 40.59,162.81 111.18,215.29 34.96,25.99 69.93,50.98 104.88,74.97 193,132.48 386.09,235.15 575.21,310.54 65.02,26.15 96.52,100.06 70.37,165.07 -26.15,65.01 -100.06,96.52 -165.07,70.36 -205.1,-81.75 -414.4,-193.02 -623.49,-336.54 -119.43,-81.99 -238.63,-174.36 -356.76,-277.63 -64.89,109.34 -117.35,228.18 -154.94,356.66 -5.53,18.9 -10.64,37.65 -15.34,56.25 -37.23,147.3 45.5,297.59 189.87,344.91 30.38,9.96 60.57,19.38 90.53,28.25 216.88,64.19 423.17,100.06 616.21,111.29 70.11,4.06 123.66,64.19 119.59,134.3 -4.06,70.1 -64.18,123.65 -134.29,119.59 -210.67,-12.27 -436.17,-51.51 -673.63,-121.8 -77.44,-22.92 -156.1,-49.16 -235.84,-78.82 110.41,665.07 756.39,989.21 944.13,719.59 237.36,-340.86 408.77,-400.06 201.63,63.23 -189.52,423.9 -341.06,488.43 -742.75,1397.67l323.19 127.85c43.56,-283.09 187.42,-870.96 520.29,-1476.65z"/>
   <path class="fil1" d="M13547.88 7288.33c3.45,-17.5 9,-33.12 16.81,-47.21 -15.45,11.94 -30.55,22.98 -46.22,33.27 -126.4,162.86 -250.96,338.68 -373.82,522.74 -26.35,-36.65 -51.26,-74.08 -72.69,-113.34 -24.83,-45.47 -45.23,-93.82 -58.18,-146.95l-30.9 7.53c13.59,55.73 35.08,106.63 61.28,154.61 24.22,44.35 52.27,85.88 81.73,126.34 -134.19,202.23 -266.34,414.01 -396.62,629.18 -96.03,-117.52 -190.98,-235.05 -269.31,-352.58 -81.54,-122.35 -144.96,-244.57 -172.44,-366.47l-30.92 6.98c28.47,126.24 93.48,251.84 176.95,377.07 80.9,121.38 179.24,242.6 278.32,363.78 -100.39,166.22 -199.65,334.29 -297.86,501.35l-59.67 -39.49c-340.7,-225.15 -681.41,-450.31 -893.15,-792.01l-27 16.77c215.33,347.5 559.01,574.62 902.68,801.73l61.03 40.4 -61.58 104.87c-57.29,97.57 -114.25,194.57 -172.61,293.35l-21.98 37.2c-157.95,-95.27 -323.53,-175.19 -486.49,-253.85 -240.97,-116.31 -476.2,-229.86 -670.43,-385.44l-19.83 24.75c197,157.8 433.86,272.13 676.49,389.25 162.4,78.38 327.42,158.05 484.15,252.59 -34.09,57.79 -67.86,115.18 -101.24,172.09 -258.7,66.17 -499.16,106.76 -708.25,103.39 -209,-3.36 -386.55,-50.61 -519.4,-160.21l-20.11 24.49c138.91,114.6 323.01,163.98 538.9,167.46 204.07,3.29 436.67,-34.43 686.32,-96.68 -219.29,374.49 -420.21,727.07 -577.2,1032.85 -193.76,377.38 -320.53,683.73 -332.41,872.58l15.47 6.12 15.87 0.84c9.57,-183.38 135.63,-487.83 329.33,-865.1 156.37,-304.57 356.88,-656.44 575.84,-1030.37 69.88,272.71 169.09,509.35 309.54,695.21 147.62,195.32 340.5,334.38 592.31,400.18l8.06 -30.72c-244.38,-63.85 -431.65,-198.9 -575.02,-388.61 -143.02,-189.25 -242.66,-433.13 -311.92,-715.24 33.51,-57.13 67.41,-114.74 101.64,-172.76 117.98,60.55 232.18,128.44 346,196.1 251.67,149.6 501.48,298.1 794.26,368.47l7.44 -30.86c-288.01,-69.22 -535.82,-216.54 -785.49,-364.95 -113.4,-67.41 -227.19,-135.05 -346.05,-196.14l21.58 -36.54c56.02,-94.81 114.16,-193.82 172.66,-293.46l61.86 -105.33c192.07,89.26 386.38,168.19 585.04,227 203.67,60.29 411.86,99.47 626.77,107.06l1.17 -31.76c-212.23,-7.5 -417.81,-46.19 -618.92,-105.73 -196.16,-58.06 -388.13,-135.93 -577.93,-224.02 97.81,-166.38 196.67,-333.75 296.62,-499.27 174.92,55.04 337.22,91.09 484.44,104.58 151.54,13.89 287.39,3.9 404.99,-33.81l-9.73 -30.24c-113.32,36.33 -244.97,45.89 -392.36,32.38 -142.96,-13.1 -300.55,-47.86 -470.42,-100.9 130.57,-215.68 263.02,-427.96 397.47,-630.55 50.26,8.34 101.2,13.5 153.06,14.33 55.37,0.87 111.84,-3.26 169.74,-13.85l-5.76 -31.19c-55.47,10.14 -109.89,14.09 -163.47,13.25 -45.29,-0.72 -89.97,-4.89 -134.19,-11.66 123.51,-184.98 248.73,-361.54 375.75,-524.85z"/>
  </g>
  <g id="_2983107813920">
   <path class="fil2" d="M8425.54 11048.2c-83.38,-309.84 -240.37,-321.13 -181.96,1.27 122.61,676.78 -1195.27,1027.97 -1594.58,42.96 166.66,-2.56 325.25,-15.04 475.47,-36.3 244.53,-34.61 465.7,-92.57 662.56,-168.98 65.45,-25.16 98.1,-98.63 72.93,-164.08 -25.16,-65.45 -98.63,-98.1 -164.08,-72.93 -180.13,69.92 -382.92,123 -607.53,154.8 -52.32,7.41 -105.89,13.65 -160.71,18.69 -218.63,20.06 -414.76,-130.19 -452.29,-346.5 -10.43,-60.07 -18.5,-118.67 -24.33,-175.93 172.24,21.79 338.16,31.93 497.2,31.6 253.6,-0.53 489.08,-27.74 704.34,-76.86 68.37,-15.38 111.33,-83.27 95.96,-151.64 -15.38,-68.36 -83.27,-111.33 -151.64,-95.95 -198.49,45.3 -415.74,70.38 -649.83,70.87 -34.45,0.08 -69.28,-0.39 -104.48,-1.4 -115.49,-3.31 -213.54,-53.1 -284.35,-144.39 -70.81,-91.3 -94.65,-198.65 -69.14,-311.33 19.45,-85.88 44.14,-169.06 73.27,-250.21 125.47,57.34 248.09,103.97 367.39,140.64 211.88,65.13 415.58,99.63 608.09,107.59 70.03,2.75 129.04,-51.79 131.78,-121.82 2.75,-70.03 -51.8,-129.03 -121.82,-131.78 -169.47,-7.01 -351.38,-38.18 -543.51,-97.24 -25.69,-7.89 -51.52,-16.28 -77.49,-25.15 -72.26,-24.69 -124.39,-75.41 -151.05,-146.98 -26.66,-71.56 -20.43,-144.02 18.06,-209.98 24.88,-42.63 50.66,-85.06 77.17,-127.41 17.92,-28.62 35.39,-56.4 52.42,-83.36l0.85 0.66c133.53,103 275.49,177.67 421.54,226.89 66.38,22.4 138.37,-13.26 160.77,-79.64 22.4,-66.38 -13.26,-138.37 -79.64,-160.77 -81.19,-27.37 -161.34,-64.75 -239.38,-112.94 -36.15,-22.32 -59.22,-54.56 -68.67,-95.98 -9.46,-41.42 -2.68,-80.47 20.19,-116.28 201.23,-315.02 289.49,-464.58 260.66,-570.36 89.51,112.26 171.89,173.1 595.55,323.94 44.78,15.94 76.81,47.97 92.73,92.76 15.92,44.78 11.31,89.84 -13.35,130.47 -36.72,60.48 -77.74,115.91 -122.44,166.36 -46.48,52.39 -41.69,132.54 10.7,179.02 52.38,46.48 132.54,41.69 179.02,-10.7 102.04,-115.19 187.99,-250.63 252.7,-406.71 1.81,-4.37 3.6,-8.75 5.38,-13.15 93.76,31.14 185.46,66.55 275.58,107.05 84.42,37.94 139.78,108.92 156.03,200.04 16.25,91.11 -11.16,176.85 -77.26,241.63 -132.81,130.17 -269.64,235 -407.3,316.26 -60.44,35.69 -80.5,113.63 -44.8,174.07 35.69,60.44 113.62,80.5 174.07,44.8 165.24,-97.54 328.34,-224.16 484.82,-382.11 83.2,-83.99 164.71,-177.06 243.84,-279.56 148.98,115.2 282.28,246.58 392.89,392.71 53.08,70.14 69.26,152.83 46.51,237.8 -22.74,84.97 -78.07,148.52 -159.1,182.75 -40.13,16.95 -80.03,32.93 -119.68,47.94 -218.92,82.88 -430.86,136.79 -632.48,165.13 -69.36,9.98 -117.51,74.3 -107.53,143.65 9.97,69.36 74.29,117.51 143.65,107.54 218.64,-30.74 448.37,-89.15 685.55,-178.95 135.48,-51.29 273.2,-112.74 412.46,-185.02 37.08,121.63 59.84,249.52 65.86,383.25 0.89,19.67 1.4,39.1 1.55,58.28 1.21,151.93 -114.83,278.28 -266.31,289.99 -31.88,2.47 -63.43,4.45 -94.64,5.95 -225.92,10.89 -434.83,-3.24 -625.02,-38.14 -69.07,-12.69 -135.36,33.01 -148.05,102.07 -12.69,69.07 33,135.36 102.07,148.05 207.56,38.09 435.93,53.49 683.29,41.57 80.67,-3.89 163.3,-10.7 247.81,-20.59 -265.11,619.86 -969.56,781.41 -1087.95,474.94 -149.67,-387.46 -302.13,-485.65 -210.87,13.57 83.5,456.76 215.39,555.42 389.8,1534.01l-344.31 47.5c24.88,-285.34 24.66,-890.56 -154.94,-1557.95z"/>
   <path class="fil1" d="M7404.82 7817.83c0.81,-17.81 -0.88,-34.31 -5.11,-49.85 12.17,15.27 24.21,29.57 37,43.3 84.13,188.2 163.4,388.56 239.06,596.52 34.3,-29.35 67.38,-59.8 97.52,-92.85 34.91,-38.28 66.2,-80.41 91.39,-128.94l28.23 14.65c-26.43,50.91 -59.38,95.25 -96.22,135.64 -34.05,37.34 -71.16,71.02 -109.39,103.34 82.37,228.3 160.48,465.39 235.96,705.33 121.18,-91.37 241.32,-183 345.29,-278.58 108.26,-99.5 198.87,-203.18 254.5,-315.07l28.38 14.11c-57.62,115.89 -150.58,222.46 -261.39,324.31 -107.39,98.71 -231.7,193.12 -356.71,287.32 58.07,185.3 114.61,372.12 170.36,557.73l67.34 -24.21c384.4,-137.85 768.82,-275.71 1055.6,-557.39l22.25 22.69c-291.65,286.47 -679.41,425.53 -1067.17,564.58l-68.88 24.76 34.94 116.49c32.49,108.39 64.8,216.13 98.05,325.94l12.51 41.35c176.06,-55.06 355.87,-93.4 532.85,-131.13 261.69,-55.79 517.15,-110.27 742.75,-215.3l13.39 28.75c-228.82,106.53 -486.05,161.38 -749.55,217.56 -176.36,37.6 -355.57,75.82 -530.27,130.47 19.41,64.22 38.6,127.99 57.51,191.19 235.61,125.68 459.56,222.19 663.47,268.54 203.83,46.34 387.52,42.58 542.59,-32.35l13.72 28.57c-162.14,78.35 -352.7,82.62 -563.25,34.76 -199.01,-45.24 -416.02,-137.09 -643.76,-256.81 124.14,415.83 235.64,806.02 315.56,1140.33 98.66,412.58 149.09,740.27 115.81,926.54l-16.48 2.28 -15.62 -2.96c34.24,-180.4 -15.96,-506.08 -114.59,-918.54 -79.61,-332.98 -190.87,-722.38 -314.83,-1137.61 -132.6,248.34 -285.14,454.67 -465.7,601.88 -189.75,154.71 -410.13,244.02 -670.36,248.16l-0.54 -31.74c252.55,-4.03 466.52,-90.77 650.82,-241.03 183.85,-149.9 338.53,-363.16 472.77,-620.77 -18.99,-63.45 -38.25,-127.47 -57.74,-191.95 -128.97,30.82 -256.02,69.66 -382.65,108.37 -279.98,85.6 -557.9,170.56 -859.02,169.43l0.1 -31.74c296.2,1.11 571.91,-83.18 849.66,-168.09 126.16,-38.57 252.75,-77.27 382.72,-108.4l-12.3 -40.62c-31.91,-105.4 -64.89,-215.38 -98.07,-326.06l-35.09 -116.99c-207.77,41.12 -415.26,71.67 -622.2,81.65 -212.16,10.23 -423.7,-1.13 -634.27,-44.76l6.4 -31.13c207.94,43.08 416.84,54.29 626.33,44.19 204.33,-9.85 409.3,-39.92 614.59,-80.45 -55.53,-184.84 -111.84,-370.89 -169.64,-555.41 -183,11.95 -349.21,8.45 -495.43,-13.38 -150.5,-22.48 -280.1,-64.42 -385.39,-128.97l16.63 -27.07c101.46,62.19 227.08,102.72 373.46,124.58 141.99,21.21 303.32,24.84 480.93,13.64 -75.65,-240.51 -153.93,-478.16 -236.46,-706.88 -50.79,-3.82 -101.51,-10.9 -152.08,-22.41 -53.99,-12.29 -107.88,-29.71 -161.6,-53.73l13 -28.94c51.47,23.02 103.4,39.78 155.65,51.68 44.16,10.05 88.55,16.6 133.12,20.51 -76.08,-209 -155.81,-410.23 -240.45,-599.03z"/>
  </g>
  <path class="fil3" d="M7801.02 10081l-156.87 79.4 -144.59 -49.23c-225.4,-76.73 -410.13,-241.45 -512.09,-456.61l-89.47 -31.7 108.22 -84.01 230.32 136.13c135.97,51.12 239.67,89.54 361.37,175.89l73.68 -25.98 129.43 256.11z"/>
  <path class="fil4" d="M7397.24 10443.25l-380.48 1012.28c-33.18,88.29 -27.95,182.46 14.36,258.57 42.31,76.11 117.64,126.84 206.83,139.27l850.11 191.6c9.68,-14.16 -11.01,412.29 32.77,397.87 13.63,-4.49 117.48,-52.19 140.56,-132.06 39.84,-137.83 0,-339.75 0,-352.11 0,-30.79 -43.32,-34.8 -77.35,-53.96l-411.91 -314.43c-82.66,-63.09 -189.49,-90.55 -299.64,-77l-75.25 -1070.03z"/>
  <rect class="fil2" x="8261.39" y="6202.43" width="4055.42" height="6994.3" rx="314.4" ry="314.4"/>
  <rect class="fil5" x="8453.9" y="6394.94" width="3670.4" height="6609.29" rx="141.17" ry="141.17"/>
  <path class="fil6" d="M12124.3 12442.84l0 420.21c0,77.65 -63.52,141.18 -141.17,141.18l-3388.06 0c-77.65,0 -141.17,-63.53 -141.17,-141.18l0 -420.21 3670.4 0z"/>
  <ellipse class="fil2" cx="10289.1" cy="13196.73" rx="5409.34" ry="202.13"/>
  <path class="fil2" d="M8917.83 11287.77l2002.04 0c147.52,0 268.22,120.7 268.22,268.22l0 220.77c0,147.52 -120.7,268.21 -268.22,268.21l-2002.04 0c-147.52,0 -268.21,-120.69 -268.21,-268.21l0 -220.77c0,-147.52 120.69,-268.22 268.21,-268.22zm65.46 -4433.99l1871.12 0c183.53,0 333.68,150.15 333.68,333.67l0 410.68c0,183.53 -150.15,333.67 -333.68,333.67l-1871.12 0c-183.53,0 -333.67,-150.14 -333.67,-333.67l0 -410.68c0,-183.52 150.14,-333.67 333.67,-333.67zm-65.46 2217l2002.04 0c147.52,0 268.22,120.69 268.22,268.21l0 220.77c0,147.52 -120.7,268.21 -268.22,268.21l-2002.04 0c-147.52,0 -268.21,-120.69 -268.21,-268.21l0 -220.77c0,-147.52 120.69,-268.21 268.21,-268.21z"/>
  <path class="fil7" d="M9017.29 11566.91l1803.12 0c54.71,0 99.46,44.75 99.46,99.46l0 0c0,54.71 -44.75,99.46 -99.46,99.46l-1803.12 0c-54.71,0 -99.46,-44.75 -99.46,-99.46l0 0c0,-54.71 44.75,-99.46 99.46,-99.46zm0 -4422.77l1803.12 0c54.71,0 99.46,44.75 99.46,99.46l0 0c0,54.71 -44.75,99.46 -99.46,99.46l-1803.12 0c-54.71,0 -99.46,-44.75 -99.46,-99.46l0 0c0,-54.71 44.75,-99.46 99.46,-99.46zm0 298.38l1803.12 0c54.71,0 99.46,44.75 99.46,99.46l0 0.01c0,54.7 -44.75,99.46 -99.46,99.46l-1803.12 0c-54.71,0 -99.46,-44.76 -99.46,-99.46l0 -0.01c0,-54.71 44.75,-99.46 99.46,-99.46zm0 1907.4l1803.12 0c54.71,0 99.46,44.75 99.46,99.46l0 0c0,54.71 -44.75,99.46 -99.46,99.46l-1803.12 0c-54.71,0 -99.46,-44.75 -99.46,-99.46l0 0c0,-54.71 44.75,-99.46 99.46,-99.46z"/>
  <polygon class="fil8" points="10275.38,5106 10197.29,5483.21 10337.85,5508.33 10456.12,5129.77 "/>
  <path class="fil9" d="M10310.18 4896.27l-56.88 228.06 194.25 67.04 187.49 -373.73 -136.48 -83.1 -83.13 -12.41c-52.02,45.32 -87.85,104.38 -105.25,174.14z"/>
  <path class="fil10" d="M11186.29 6165.56l-2.68 36.98 -1008.59 -0.37 -205.48 -58.37 -24.3 335.12c-4.62,63.86 -24.7,117.5 -63.13,168.71l-378.42 504.22 -126.41 -62.19 331.43 -1129.12c14.14,-48.21 37.61,-86.22 74.35,-120.48l71.8 -66.94 1240.03 -118.47 43.51 220.97 17.63 52.21c27.05,80.14 36.38,153.37 30.26,237.73z"/>
  <path class="fil2" d="M10301.93 5697.19l90.46 -319.28 -27.2 -191.75c-38.26,-19.71 -62.51,-57.34 -59.39,-100.29l0 0c1.05,-14.45 5.1,-28.29 11.59,-41.05l-0.01 0 41.83 -83.53 56.21 -239.16 285.36 -117.23 400.7 123.89 -9.33 86.42c-61.41,97.13 -75.42,260.92 -112.89,311.89 -87.05,118.46 -74.39,272.12 11.05,381.75l126.01 161.67 22.52 199.04 -42.82 -101.68 -25.49 122.23c-169.05,-58.27 -350.37,-53.13 -540.98,0l-112.95 -136.41 -124.95 -15.1 10.28 -41.41z"/>
  <path class="fil9" d="M10385.74 5330.99l-20.55 -144.83c-38.26,-19.71 -62.51,-57.34 -59.39,-100.29l0 0c1.15,-15.87 5.93,-31 13.56,-44.77 44.28,34.7 107.6,37.14 159.32,5.55 20.16,-12.31 44.78,-12.31 63.16,0 87.59,58.69 211.38,31.54 276.59,-60.66l82.3 -116.37 123.28 129.09c-14.64,55.32 -27.1,104.38 -44.75,128.39 -87.05,118.46 -74.4,272.12 11.05,381.75l66.85 85.77c-129.83,-106.73 -276.26,-137.15 -441.67,-128.96l14.79 -55.61c-13.38,-56.3 -20.7,-71.86 -73.81,-93.32 -53.12,-21.47 -114.87,-16.81 -167.86,12.66l-2.87 1.6z"/>
  <polygon class="fil2" points="10934.08,4692.31 10879.49,4538.77 10581.22,4538.77 10529.42,4695.29 "/>
  <path class="fil11" d="M10836.37 3942.26c-106.49,0 -199.08,86.33 -206.81,192.83 -7.72,106.49 72.35,192.82 178.84,192.82 106.49,0 199.09,-86.33 206.81,-192.82 7.73,-106.5 -72.35,-192.83 -178.84,-192.83z"/>
  <path class="fil12" d="M10805.03 4017.17c-48.83,0 -91.29,39.59 -94.83,88.42 -3.54,48.83 33.17,88.42 82,88.42 48.84,0 91.29,-39.59 94.83,-88.42 3.54,-48.83 -33.17,-88.42 -82,-88.42z"/>
  <path class="fil11" d="M10663.6 3979.16c-128.46,0 -240.15,104.14 -249.47,232.6 -9.31,128.46 87.27,232.6 215.73,232.6 128.46,0 240.16,-104.14 249.47,-232.6 9.32,-128.46 -87.27,-232.6 -215.73,-232.6z"/>
  <polygon class="fil3" points="10778.7,4402.29 10817.84,4548.06 10661.75,4574.18 10631.9,4683.71 10592.89,4419.98 "/>
  <path class="fil8" d="M10703.32 4567.22l-41.57 6.96 -14.27 52.36c-7.16,5.37 -14.49,10.1 -21.95,14.16l-32.64 -220.72 178.07 -16.95c-13.11,63.7 -37.05,120.48 -67.64,164.19z"/>
  <path class="fil3" d="M10449.72 4137.55c-10.69,34.92 -18.07,72.71 -21.27,112.18 -14.36,176.86 60.34,320.23 166.81,320.23 106.48,0 204.44,-143.37 218.79,-320.23 2.68,-33.03 2.25,-64.89 -0.9,-94.87l-182.62 -33.06 -180.81 15.75z"/>
  <path class="fil11" d="M10783.22 4390.02l-36.39 -35.49c-117.86,-7.66 -187.85,-53.19 -236.71,-160.52 -24.52,69.48 -52.28,106.69 -83.3,111.02l-8.36 -78.73 35.72 -120.71 279.71 -14.94 113.09 55.61 -9.23 127.23 -54.53 116.53z"/>
  <path class="fil3" d="M10749.05 4293.94c-25.62,0 -48.54,29.61 -51.19,66.13 -2.65,36.52 15.98,66.13 41.6,66.13 25.62,0 48.55,-29.61 51.2,-66.13 2.65,-36.52 -15.98,-66.13 -41.61,-66.13z"/>
  <path class="fil7" d="M10621.94 4490.88l-124.93 0c32.23,37.23 88.39,45.21 124.93,0z"/>
  <polygon class="fil10" points="10709.11,4735.01 10700.84,4689.31 10636.8,4701.64 10584.34,4683.72 10565.04,4731.34 10585.2,4715.42 10598.66,4762.05 10440.94,5136.05 10431.24,5269.76 10494.91,5393.93 10581.27,5277.82 10589.58,5134.19 10631.2,4763.69 10666.58,4716.13 "/>
  <polygon class="fil3" points="11054.13,5161.89 10951.66,5435.94 10807.08,5358.68 10878.65,5129.77 "/>
  <path class="fil8" d="M11041.17 5196.56l-65.09 174.07c-6.17,-29.13 -22.25,-55.09 -46.33,-73.18 -27.22,-20.43 -61.74,-28.6 -96.12,-23.67l37.09 -118.64 170.45 41.42z"/>
  <path class="fil3" d="M10951.66 5435.94c-159.34,157.45 -300.87,238.68 -534.28,282.74l-43.52 -36.33 448.78 -346.2 129.02 99.79z"/>
  <path class="fil2" d="M11136.95 5037.91l-90.7 219.18 -204.01 -37.45 69.37 -404.71 189.87 -86.15 18.36 30.38c51.16,84.64 57.13,182.01 17.11,278.75z"/>
  <path class="fil11" d="M9767.86 5767.42l897.44 0c9.72,0 17.09,7.95 16.38,17.67l0 0.01c-0.7,9.73 -9.22,17.67 -18.94,17.67l-897.45 0c-9.72,0 -17.09,-7.94 -16.38,-17.67l0 -0.01c0.7,-9.72 9.22,-17.67 18.95,-17.67z"/>
  <path class="fil13" d="M10051.88 7090.64l35.92 20.74c82.04,50.59 43.37,199.81 31.84,376.5 -3.03,46.42 -10.13,114.78 -43.97,143.59 -65.88,56.1 -238.47,26.44 -187.27,-182.02 15.32,-62.37 34.52,-123.56 57.46,-183.14 17.23,-44.74 30.54,-91.11 39.78,-138.52l66.24 -37.15z"/>
  <path class="fil11" d="M9623.3 5236.45l697.77 0c11.7,0 23.1,9.57 25.36,21.27l96.5 501.22c2.26,11.7 -5.46,21.27 -17.17,21.27l-697.77 0c-11.7,0 -23.11,-9.57 -25.37,-21.27l-96.5 -501.22c-2.25,-11.7 5.47,-21.27 17.18,-21.27z"/>
  <ellipse class="fil14" transform="matrix(0.618501 -0 -0.0448576 0.618501 10024.5 5508.33)" rx="193.27" ry="116.41"/>
  <path class="fil13" d="M10234.58 6202.13l50.21 168.52c24.2,81.23 25.02,157.88 2.55,239.69l-169.44 617.16 -143.89 -10.63 -89.83 -758.97c-7.84,-66.35 -8.8,-123.74 -3.14,-190.35l12.63 -148.7c4.37,-51.44 26.19,-93.93 64.28,-125.19l14.49 -11.88c37.54,-30.82 87.68,-30.8 125.21,0.04l46.22 37.98c11.1,9.12 20.89,18.9 29.48,29.49l0 -0.01 169.07 152.9 -107.84 -0.05z"/>
  <path class="fil10" d="M9503.69 7151.85l36.17 42.39c12.23,16 16.93,36.51 12.88,56.24 -4.06,19.73 -16.46,36.73 -34.01,46.62 -45.97,25.88 -132.75,70.01 -197.95,124.61 -49.83,41.72 -118.51,53.02 -180.89,34.81 -16.21,-4.74 -28.96,-17.36 -33.84,-33.53 -4.89,-16.17 -1.28,-33.74 9.6,-46.66 37.2,-44.23 38.89,-41.67 82.46,-79.64l305.58 -144.84z"/>
  <path class="fil3" d="M9974.01 7216.87l-19.45 175.96c1.74,81.84 77.39,63.77 101.32,0l62.02 -165.33c3.34,-28.69 -8.3,-57.03 -30.24,-73.61 -21.94,-16.59 -50.58,-18.7 -74.41,-5.49 -23.82,13.2 -36.07,39.79 -39.24,68.47z"/>
  <path class="fil3" d="M9377.28 7089.66l-179.17 207.03c41.46,17.64 125.89,18.92 188.85,-26.75 53,-38.44 85.54,-124.66 116.73,-118.09l-30.97 -41.25c-22.24,-29.63 -72.78,-47.12 -95.44,-20.94z"/>
  <path class="fil7" d="M9598.01 8122.69l2002.04 0c147.52,0 268.21,120.69 268.21,268.22l0 220.76c0,147.53 -120.69,268.22 -268.21,268.22l-2002.04 0c-147.52,0 -268.22,-120.69 -268.22,-268.22l0 -220.76c0,-147.53 120.7,-268.22 268.22,-268.22zm65.45 1896.18l1871.13 0c183.53,0 333.67,150.14 333.67,333.67l0 410.67c0,183.53 -150.14,333.67 -333.67,333.67l-1871.13 0c-183.52,0 -333.67,-150.14 -333.67,-333.67l0 -410.67c0,-183.53 150.15,-333.67 333.67,-333.67z"/>
  <path class="fil2" d="M9697.47 10607.6l1803.12 0c54.71,0 99.46,44.76 99.46,99.46l0 0.01c0,54.71 -44.75,99.46 -99.46,99.46l-1803.12 0c-54.71,0 -99.46,-44.75 -99.46,-99.46l0 -0.01c0,-54.7 44.75,-99.46 99.46,-99.46zm0 -2205.77l1803.12 0c54.71,0 99.46,44.75 99.46,99.45l0 0.01c0,54.71 -44.75,99.46 -99.46,99.46l-1803.12 0c-54.71,0 -99.46,-44.75 -99.46,-99.46l0 -0.01c0,-54.7 44.75,-99.45 99.46,-99.45zm0 1907.39l1803.12 0c54.71,0 99.46,44.75 99.46,99.46l0 0.01c0,54.7 -44.75,99.46 -99.46,99.46l-1803.12 0c-54.71,0 -99.46,-44.76 -99.46,-99.46l0 -0.01c0,-54.71 44.75,-99.46 99.46,-99.46z"/>
  <circle class="fil5" cx="9124.86" cy="12723.53" r="134.75"/>
  <g id="_2983107867072">
   <path class="fil5" d="M10289.1 12588.78c74.43,0 134.76,60.33 134.76,134.75 0,74.43 -60.33,134.76 -134.76,134.76 -74.42,0 -134.75,-60.33 -134.75,-134.76 0,-74.42 60.33,-134.75 134.75,-134.75z"/>
  </g>
  <circle class="fil5" cx="11453.35" cy="12723.53" r="134.75"/>
  <path class="fil3" d="M7435.09 8516.82c-8.06,129.02 -39.44,346.29 -20.03,453.86 20,110.91 146.72,79.76 191.71,34.77l83.7 116.96 163.43 -116.96 -81.9 -147.07 77 -365.75 -413.91 24.19z"/>
  <path class="fil10" d="M7397.24 10443.25l-98.8 933.71c-17.86,168.8 -17.29,342.34 -6.42,511.74 5.24,81.5 0.93,163.34 -12.83,243.84l-179.67 774.4c-232.25,39.87 -344.89,47.8 -345.8,87.67 -0.69,30.71 64.35,159.48 247.63,96.85 80.24,-27.42 245.5,75.44 258.39,-87.23l378.79 -561.39c114.63,-169.88 84.56,-400.96 32.08,-599.06l109.09 -622.43c23.32,-77.99 57.97,-151.71 102.51,-218.91 94.5,-142.54 137.74,-290.04 135.2,-461.04l-0.29 -19.47 -619.88 -78.68z"/>
  <path class="fil7" d="M7582.9 9128.81l271 -193.95 63.01 130.57c255.03,190.11 383.96,505.71 335.01,820.02 -36.49,234.26 -110.15,461.19 -218.21,672.22l-30.99 271.75 -605.48 -386.17 66.75 -276.52 9.54 -208.11c8.5,-185.55 25.2,-370.62 50.06,-554.7l59.31 -275.11z"/>
  <path class="fil3" d="M8182.67 9928.36l78.72 157.21 -49.84 144.38c-77.7,225.06 -243.21,409.09 -458.8,510.13l-32.09 89.34 -83.54 -108.59 137.11 -229.73c51.7,-135.75 90.57,-239.28 177.43,-360.61l-25.66 -73.79 256.67 -128.34z"/>
  <path class="fil3" d="M7012.79 9484.83l0 -18.91c0,-13.54 3.3,-26.87 9.63,-38.84 2.4,-4.56 1.77,-10.13 -1.6,-14.03 -3.37,-3.9 -8.78,-5.34 -13.65,-3.62 -18.93,6.68 -32.94,22.83 -36.89,42.51l42.51 32.89z"/>
  <path class="fil3" d="M6898 9622.85l-47.22 -18.91c-12.02,-4.81 -20.77,-15.38 -23.26,-28.07 -5.51,-28.05 -13.01,-55.66 -22.46,-82.63 -7.34,-20.97 0.2,-44.26 18.44,-56.94l146.78 29.62 53.59 138.82 -125.87 18.11z"/>
  <rect class="fil11" transform="matrix(0.526299 -0.364413 0.492063 0.430807 6711.22 9380.29)" width="230.67" height="592.68" rx="39.69" ry="39.69"/>
  <path class="fil11" d="M7427.75 8606.52l-18.93 -56.54c-25.43,-75.99 -0.25,-159.75 62.86,-209.11 63.1,-49.37 150.47,-53.64 218.09,-10.67l139.94 57.75c33.32,13.76 53.93,47.49 50.96,83.42l14.44 21.26c10.44,15.37 14.48,34.23 11.23,52.53l-119.98 339.01 -103.01 -141.69 -51.99 -44.92 23.12 -67.37c4.89,-14.27 1.37,-30.08 -9.13,-40.92 -10.5,-10.83 -26.19,-14.86 -40.6,-10.42l-177 27.67z"/>
  <ellipse class="fil3" transform="matrix(0.60631 -0 -0.181085 0.60631 7712.91 8757.91)" rx="85.01" ry="145.09"/>
  <path class="fil8" d="M7606.77 9005.45l10.8 -15.51c13.51,-19.4 21.92,-41.87 24.46,-65.37l4.82 16.44c10.26,35.06 6.25,72.75 -11.16,104.86l-28.92 -40.42z"/>
  <g id="_2983107858368">
   <path class="fil7" d="M13473.62 13063.47l-60.87 38.84c-34.14,21.78 -71.81,37.02 -110.97,44.9 -10.65,2.14 -19.74,9.53 -24.07,19.57 -4.35,10.06 -3.34,21.36 2.66,29.96l375.15 0 -2.01 -29.46c-2.14,-31.26 -19.17,-58.84 -45.84,-74.23 -26.66,-15.38 -59.76,-16.73 -89.07,-3.61l-44.98 -25.97z"/>
   <polygon class="fil15" points="13608.13,9172.74 13611.41,9845.64 13484.35,10052.68 13253.03,10074.58 "/>
   <path class="fil4" d="M12695.02 10184.46l-177.56 570.37 72.92 1226.79 -30.48 1068.76 194.51 116.9 213.2 -660.98c36.28,-112.54 30.91,-116.23 16.3,-230.97l-36.7 -288.43 46.89 -923.62 217.96 905.68 76.13 478.93 185.43 615.58 179.89 103.81 35.18 -675.74c5.34,-102.43 -11.61,-190.18 -54.25,-281.02l-125.72 -267.81 -81.94 -1206.37 -204.72 -530.76 -527.04 -21.12z"/>
   <polygon class="fil16" points="12487.95,10078.72 12891.94,9902.12 12826.21,9820.59 12421.59,9817.11 "/>
   <path class="fil7" d="M12606.24 10469.65l59.62 -79.2 148.49 242.92 563.84 -23.04 -63.52 -365.51 40.06 -83.2c134.51,-279.38 207.44,-536.65 238.3,-840.33l15.1 -148.55 -495.46 -444.59 -566.23 431.58 58.55 514.74 56.82 227.09 -60.52 351.18 4.95 216.91z"/>
   <polygon class="fil7" points="13057.36,9239.42 12546.44,9159.73 12449.52,9234.77 12403.14,9471.48 12203.52,9914.95 12268.48,10132.65 12492.15,10077.69 12747.33,9692.12 "/>
   <path class="fil16" d="M12705.99 8253.32c-9.88,30.74 -17.62,63.06 -22.83,96.4 -32.22,206.42 45.29,373.78 173.12,373.78 127.82,0 257.58,-167.36 289.8,-373.78 5.2,-33.34 7.55,-65.66 7.27,-96.4l-447.36 0z"/>
   <polygon class="fil7" points="13291.55,8908.48 13214.62,8692.11 12819.42,8777.9 12772.66,9035.2 "/>
   <polygon class="fil16" points="13173.42,8701.08 13131.15,8392.35 12868.52,8466.29 12873.18,8766.23 "/>
   <ellipse class="fil17" transform="matrix(-1.92157 -0 0.402878 2.17352 12906.6 8191.54)" rx="131.3" ry="76.07"/>
   <ellipse class="fil17" transform="matrix(-1.98391 -0 -0.308741 2.01316 12904.5 8325.14)" rx="61.84" ry="92.94"/>
   <ellipse class="fil17" transform="matrix(-2.73707 -0 -0.412707 2.52311 13070.8 8394.23)" rx="61.84" ry="92.94"/>
   <ellipse class="fil16" transform="matrix(-0.479483 -0 -0.0295793 0.56811 12871.5 8484.44)" rx="98.66" ry="150.32"/>
   <path class="fil18" d="M12873.51 8422.7c-15.78,0 -29.78,23.09 -31.26,51.58 -0.32,6.08 -0.03,11.93 0.76,17.35 5.62,-16.46 15.75,-27.7 26.76,-27.7 12.41,0 22.23,14.29 25.13,34.25 2.45,-7.15 4.05,-15.28 4.49,-23.9 1.49,-28.49 -10.1,-51.58 -25.88,-51.58z"/>
   <polygon class="fil15" points="12492.16,10077.69 12718.09,9521.33 12767.44,9935.31 12601.29,10252.74 12661.81,9901.56 12648.77,9849.44 "/>
   <path class="fil7" d="M12559.9 13050.37l-141.64 40.35c-45.16,12.87 -91.19,21.59 -137.51,26.08 -18.17,1.75 -34.25,13.75 -41.33,30.82 -7.07,17.07 -3.88,36.18 8.19,49.12l512.76 0 -5.95 -29.46 -194.52 -116.91z"/>
  </g>
 </g>
</svg>
